<svg width="304" height="305" viewBox="0 0 304 305" fill="none" xmlns="http://www.w3.org/2000/svg">
<path d="M234.964 304H220H211H154.5C147.5 304 153.239 304.266 147.5 304C141.895 303.867 130 304 130 304H123C123 304 115 304 115.5 304C115 304 101 304 101 304C92.7251 304 9.33162e-05 304 9.33162e-05 304C9.33162e-05 304 9.33162e-05 256.747 9.33162e-05 248.5V55C9.33162e-05 47.0193 0 8 4.63478e-05 -6.34193e-05C4.63478e-05 -6.34193e-05 93.9553 -7.62939e-05 102.23 -7.62939e-05C110.238 -7.62939e-05 106 -5.98431e-05 118.5 -7.00951e-05L130 -7.62939e-05C130 -7.62939e-05 135 -7.62939e-05 137 -5.8651e-05H174C178.5 -4.57764e-05 199.395 -7.62939e-05 208.337 -7.62939e-05C218.213 -7.62939e-05 304 -7.62939e-05 304 -7.62939e-05V63.9999V118.5V154.5V238V304C304 304 244.706 304 234.964 304Z" fill="white"/>
</svg>
