<svg width="325" height="284" fill="none" xmlns="http://www.w3.org/2000/svg"><g opacity=".15" filter="url(#a)"><path d="M294 267c0 2.209-58.651 4-131 4-72.35 0-131-1.791-131-4s58.65-4 131-4c72.349 0 131 1.791 131 4z" fill="#151B31"/></g><path d="M251.878 44.563H70.759c-5.208 0-9.47 4.518-9.47 10.04v111.711c0 5.522 4.262 10.041 9.47 10.041h181.119c5.209 0 9.47-4.519 9.47-10.041V54.604c0-5.523-4.261-10.041-9.47-10.041z" fill="#3B425B"/><path d="M292.637 218.984H30l30.898-46.409H261.74l30.898 46.409z" fill="#ECECEC"/><path d="M289.072 228.503H33.565c-2.02 0-3.565-1.547-3.565-3.57v-5.95h262.637v5.95c0 2.023-1.545 3.57-3.565 3.57z" fill="#3B425B"/><path d="M250.913 50.252H71.725c-2.61 0-4.746 2.27-4.746 5.043v117.268H255.66V55.295c0-2.774-2.136-5.044-4.747-5.044z" fill="url(#b)"/><path d="M292.637 218.984H30l30.898-46.409H261.74l30.898 46.409z" fill="#686D7D"/><path d="M67 0h189v173H67V0z" fill="url(#c)"/><path d="M325 50v123H67V50h258z" fill="url(#d)"/><path d="M0 173V50h256v123H0z" fill="url(#e)"/><path d="M84 65h153v90H84V65z" fill="#fff"/><path d="M84 61a2 2 0 0 1 2-2h149a2 2 0 0 1 2 2v4H84v-4z" fill="#3B425B"/><path d="M89 62a2 2 0 1 1-4 0 2 2 0 0 1 4 0zM94 62a2 2 0 1 1-4 0 2 2 0 0 1 4 0zM99 62a2 2 0 1 1-4 0 2 2 0 0 1 4 0z" fill="#fff"/><path d="M84 65h37v90H84V65zM200 65h37v90h-37V65z" fill="#F2F2F2"/><path d="M87 70a2 2 0 0 1 2-2h26a2 2 0 0 1 2 2v5a2 2 0 0 1-2 2H89a2 2 0 0 1-2-2v-5zM92 147a2 2 0 0 1 2-2h16a2 2 0 0 1 2 2v3a2 2 0 0 1-2 2H94a2 2 0 0 1-2-2v-3zM87 87.5a1.5 1.5 0 0 1 1.5-1.5h16a1.5 1.5 0 0 1 0 3h-16a1.5 1.5 0 0 1-1.5-1.5zM87 93.5a1.5 1.5 0 0 1 1.5-1.5h18a1.5 1.5 0 0 1 0 3h-18a1.5 1.5 0 0 1-1.5-1.5zM87 99.5a1.5 1.5 0 0 1 1.5-1.5h21a1.5 1.5 0 0 1 0 3h-21a1.5 1.5 0 0 1-1.5-1.5zM87 105.5a1.5 1.5 0 0 1 1.5-1.5h16a1.5 1.5 0 0 1 0 3h-16a1.5 1.5 0 0 1-1.5-1.5z" fill="#CFCFCF"/><path d="M204 73a4 4 0 0 1 4-4h21a4 4 0 0 1 4 4v9a4 4 0 0 1-4 4h-21a4 4 0 0 1-4-4v-9zM204 95a4 4 0 0 1 4-4h21a4 4 0 0 1 4 4v9a4 4 0 0 1-4 4h-21a4 4 0 0 1-4-4v-9zM204 117a4 4 0 0 1 4-4h21a4 4 0 0 1 4 4v9a4 4 0 0 1-4 4h-21a4 4 0 0 1-4-4v-9zM204 139a4 4 0 0 1 4-4h21a4 4 0 0 1 4 4v9a4 4 0 0 1-4 4h-21a4 4 0 0 1-4-4v-9z" fill="#fff"/><g opacity=".5" fill="#CFCFCF"><path fill-rule="evenodd" clip-rule="evenodd" d="M125 73.5h2v24h66v2h-68v-26z"/><path d="M126 134.5a1.5 1.5 0 0 1 1.5-1.5h10a1.5 1.5 0 0 1 0 3h-10a1.5 1.5 0 0 1-1.5-1.5zM126 146.5a1.5 1.5 0 0 1 1.5-1.5h10a1.5 1.5 0 0 1 0 3h-10a1.5 1.5 0 0 1-1.5-1.5zM152 134.5a1.5 1.5 0 0 1 1.5-1.5h17a1.5 1.5 0 0 1 0 3h-17a1.5 1.5 0 0 1-1.5-1.5zM152 146.5a1.5 1.5 0 0 1 1.5-1.5h17a1.5 1.5 0 0 1 0 3h-17a1.5 1.5 0 0 1-1.5-1.5zM179 134.5a1.5 1.5 0 0 1 1.5-1.5h6a1.5 1.5 0 0 1 0 3h-6a1.5 1.5 0 0 1-1.5-1.5zM179 146.5a1.5 1.5 0 0 1 1.5-1.5h6a1.5 1.5 0 0 1 0 3h-6a1.5 1.5 0 0 1-1.5-1.5zM126 140.5a1.5 1.5 0 0 1 1.5-1.5h15a1.5 1.5 0 0 1 0 3h-15a1.5 1.5 0 0 1-1.5-1.5zM152 140.5a1.5 1.5 0 0 1 1.5-1.5h8a1.5 1.5 0 0 1 0 3h-8a1.5 1.5 0 0 1-1.5-1.5zM179 140.5a1.5 1.5 0 0 1 1.5-1.5h12a1.5 1.5 0 0 1 0 3h-12a1.5 1.5 0 0 1-1.5-1.5z"/><path fill-rule="evenodd" clip-rule="evenodd" d="m183.503 75.364-22.139 12.871-6.423-5.928-12.828 9.867-4.915-2.458-9.991 9.99-1.414-1.413 11.01-11.01 5.084 2.542 13.172-10.132 6.577 6.071 20.861-12.129 1.006 1.73zM142 117a7 7 0 0 0-7-7v-2a9 9 0 0 1 9 9 9 9 0 0 1-9 9 9 9 0 0 1-9-9h2a7 7 0 1 0 14 0zM167 117a7 7 0 0 0-7-7v-2a9 9 0 0 1 9 9 9 9 0 0 1-9 9 9 9 0 0 1-6.536-15.188l1.453 1.376A7 7 0 1 0 167 117zM192 117a7 7 0 0 0-7-7v-2a9 9 0 0 1 9 9 9 9 0 0 1-9 9 9 9 0 0 1-9-9 9 9 0 0 1 .448-2.812l1.9.624A7.016 7.016 0 0 0 178 117a7 7 0 1 0 14 0z"/></g><defs><linearGradient id="b" x1="161.319" y1="50.252" x2="161.319" y2="172.563" gradientUnits="userSpaceOnUse"><stop stop-color="#6CE6FF"/><stop offset="1" stop-color="#1FC1FF"/></linearGradient><linearGradient id="c" x1="161.5" y1="0" x2="161.5" y2="173" gradientUnits="userSpaceOnUse"><stop stop-color="#6CB8FF" stop-opacity="0"/><stop offset="1" stop-color="#176BFA"/></linearGradient><linearGradient id="d" x1="325" y1="111.5" x2="67" y2="111.5" gradientUnits="userSpaceOnUse"><stop stop-color="#6CB8FF" stop-opacity="0"/><stop offset="1" stop-color="#176BFA"/></linearGradient><linearGradient id="e" x1="0" y1="111.5" x2="256" y2="111.5" gradientUnits="userSpaceOnUse"><stop stop-color="#6CB8FF" stop-opacity="0"/><stop offset="1" stop-color="#176BFA"/></linearGradient><filter id="a" x="23" y="254" width="280" height="26" filterUnits="userSpaceOnUse" color-interpolation-filters="sRGB"><feFlood flood-opacity="0" result="BackgroundImageFix"/><feBlend in="SourceGraphic" in2="BackgroundImageFix" result="shape"/><feGaussianBlur stdDeviation="4.5" result="effect1_foregroundBlur"/></filter></defs></svg>