<svg width="325" height="284" fill="none" xmlns="http://www.w3.org/2000/svg"><mask id="a" mask-type="alpha" maskUnits="userSpaceOnUse" x="26" y="44" width="274" height="178"><path d="M26 44h274v178H26V44z" fill="#C4C4C4"/></mask><g mask="url(#a)"><path d="M162.5 299c69.864 0 126.5-56.636 126.5-126.5S232.364 46 162.5 46 36 102.636 36 172.5 92.636 299 162.5 299z" fill="url(#b)"/><g filter="url(#c)"><path d="M289.001 172.5c0-38.825-17.503-73.513-45.031-96.745-.318.16-.796.319-1.114.478-17.503 6.524-32.301 25.618-31.824 44.553 4.774 11.616 15.912-1.114 23.868-1.591 13.207 1.591 12.571 17.503 28.642 14.321 6.364-1.591 10.661 5.887 4.773 9.547-7.637 3.819-9.229-5.251-19.094 0-10.502 6.046-14.162-6.206-23.868-7.956-27.209-5.092-46.463 34.052-25.459 52.509 19.253 12.571 36.279-9.865 38.189 23.868.477 3.183 0 7.956-.955 12.412-1.273 5.728-.955 11.615.795 17.344 2.069 6.842 4.933 13.684 9.707 18.139 1.432 1.273 3.023 2.069 4.614 2.387 22.754-22.913 36.757-54.419 36.757-89.266z" fill="#315787"/></g><g filter="url(#d)"><path d="M121.288 52.842c-9.388 8.593 7.001 12.412 13.366 15.435 4.455 8.592 3.5 25.14 17.503 22.276 3.5-5.091 6.683-13.047 14.321-11.138 16.23.796 30.869-21.322 14.32-31.824 0 0-.318-.159-.954-.318C174.274 46.477 168.387 46 162.5 46c-14.48 0-28.324 2.387-41.212 6.842z" fill="#315787"/></g><g filter="url(#e)"><path d="M38.545 147.359c11.775 17.185 31.028 17.026 45.19 30.71 2.546 2.546 5.569 6.047 9.07 7.479 2.227.795 4.137 2.705 4.773 5.092 2.228 7.637-10.502 10.342-1.114 24.027 7.638 18.935 22.118 17.98 9.548 41.371-1.432 8.274-3.501 19.094-3.342 28.005 4.615 2.386 9.229 4.614 14.162 6.524.477-3.819 1.432-10.025 6.683-20.049 23.231-14.321 12.57-11.775 25.459-30.233 13.684-5.092 16.548-26.732 6.365-36.598-13.526-2.546-17.026-7.956-25.459-17.503-16.708-12.729-29.597 2.864-36.598-11.138-2.546-10.82-17.821-10.184-23.868-17.503-1.114-6.365 4.615-12.889 11.138-11.139 30.551-6.683 7.638-15.116 42.963-28.641 20.685-18.14-4.615-52.51-27.687-52.669-29.119 17.98-50.282 47.577-57.283 82.265z" fill="#315787"/></g></g><path opacity=".25" d="M263 170c0 25.957-21.043 47-47 47s-47-21.043-47-47 21.043-47 47-47 47 21.043 47 47z" fill="#FDFDFD"/><path d="M238.28 170.557c0 12.306-9.976 22.282-22.282 22.282-12.305 0-22.281-9.976-22.281-22.282 0-12.305 9.976-22.281 22.281-22.281 12.306 0 22.282 9.976 22.282 22.281z" fill="#FDFDFD"/><path opacity=".25" d="M115 115c0 14.359-11.641 26-26 26-14.36 0-26-11.641-26-26s11.64-26 26-26c14.359 0 26 11.641 26 26z" fill="#FDFDFD"/><path d="M101.324 115.308c0 6.808-5.519 12.326-12.326 12.326-6.808 0-12.326-5.518-12.326-12.326 0-6.807 5.518-12.326 12.326-12.326 6.807 0 12.326 5.519 12.326 12.326z" fill="#FDFDFD"/><path opacity=".25" d="M174 60c0 10.493-8.507 19-19 19s-19-8.507-19-19 8.507-19 19-19 19 8.507 19 19z" fill="#FDFDFD"/><path d="M164.007 60.225a9.008 9.008 0 1 1-18.015 0 9.008 9.008 0 0 1 18.015 0z" fill="#FDFDFD"/><g opacity=".15" filter="url(#f)"><path d="M302 222c0 2.209-63.128 4-141 4s-141-1.791-141-4 63.128-4 141-4 141 1.791 141 4z" fill="#151B31"/></g><path d="M21 222h279v13H21v-13z" fill="#fff"/><defs><filter id="c" x="187.986" y="74.755" width="104.014" height="192.011" filterUnits="userSpaceOnUse" color-interpolation-filters="sRGB"><feFlood flood-opacity="0" result="BackgroundImageFix"/><feColorMatrix in="SourceAlpha" values="0 0 0 0 0 0 0 0 0 0 0 0 0 0 0 0 0 0 127 0"/><feOffset dy="2"/><feGaussianBlur stdDeviation="1.5"/><feColorMatrix values="0 0 0 0 0.0778125 0 0 0 0 0.182818 0 0 0 0 0.225 0 0 0 0.15 0"/><feBlend in2="BackgroundImageFix" result="effect1_dropShadow"/><feBlend in="SourceGraphic" in2="effect1_dropShadow" result="shape"/></filter><filter id="d" x="115.451" y="45" width="75.628" height="50.882" filterUnits="userSpaceOnUse" color-interpolation-filters="sRGB"><feFlood flood-opacity="0" result="BackgroundImageFix"/><feColorMatrix in="SourceAlpha" values="0 0 0 0 0 0 0 0 0 0 0 0 0 0 0 0 0 0 127 0"/><feOffset dy="2"/><feGaussianBlur stdDeviation="1.5"/><feColorMatrix values="0 0 0 0 0.0778125 0 0 0 0 0.182818 0 0 0 0 0.225 0 0 0 0.15 0"/><feBlend in2="BackgroundImageFix" result="effect1_dropShadow"/><feBlend in="SourceGraphic" in2="effect1_dropShadow" result="shape"/></filter><filter id="e" x="35.545" y="64.094" width="128.894" height="231.472" filterUnits="userSpaceOnUse" color-interpolation-filters="sRGB"><feFlood flood-opacity="0" result="BackgroundImageFix"/><feColorMatrix in="SourceAlpha" values="0 0 0 0 0 0 0 0 0 0 0 0 0 0 0 0 0 0 127 0"/><feOffset dy="2"/><feGaussianBlur stdDeviation="1.5"/><feColorMatrix values="0 0 0 0 0.0778125 0 0 0 0 0.182818 0 0 0 0 0.225 0 0 0 0.15 0"/><feBlend in2="BackgroundImageFix" result="effect1_dropShadow"/><feBlend in="SourceGraphic" in2="effect1_dropShadow" result="shape"/></filter><filter id="f" x="11" y="209" width="300" height="26" filterUnits="userSpaceOnUse" color-interpolation-filters="sRGB"><feFlood flood-opacity="0" result="BackgroundImageFix"/><feBlend in="SourceGraphic" in2="BackgroundImageFix" result="shape"/><feGaussianBlur stdDeviation="4.5" result="effect1_foregroundBlur"/></filter><linearGradient id="b" x1="162.5" y1="46" x2="162.5" y2="299" gradientUnits="userSpaceOnUse"><stop stop-color="#6CB8FF"/><stop offset="1" stop-color="#176BFA"/></linearGradient></defs></svg>