<svg width="325" height="284" fill="none" xmlns="http://www.w3.org/2000/svg"><mask id="a" mask-type="alpha" maskUnits="userSpaceOnUse" x="26" y="44" width="274" height="178"><path d="M26 44h274v178H26V44z" fill="#C4C4C4"/></mask><g mask="url(#a)"><mask id="b" mask-type="alpha" maskUnits="userSpaceOnUse" x="36" y="46" width="253" height="253"><path d="M162.5 299c69.864 0 126.5-56.636 126.5-126.5S232.364 46 162.5 46 36 102.636 36 172.5 92.636 299 162.5 299z" fill="#ADC2D0"/></mask><g mask="url(#b)"><path d="M-236-41h535.999v397.719H-236V-41z" fill="#8D95A4"/><path d="M299.999-41H-236v321.336h535.999V-41z" fill="#8D95A4"/><path d="M158.777 152.081c-3.474-1.811-4.739-6.748-4.739-6.748l-.268-1.297-51.295-86.867-13.85 8.162 50.062 84.779c1.019 3.459 4.213 11.696 12.435 16.099 2.638 1.414 6.325 2.677 11.085 2.677 3.613 0 7.836-.728 12.671-2.656 18.342-7.337 93.178-73.96 125.113-102.827V41.69C255.76 82.06 183.24 145.579 168.896 151.309c-4.352 1.736-7.761 2.003-10.119.772z" fill="#303855"/><path d="M69.09 5.058c-11.942 5.088-28.815 10.98-48.336 17.813-36.105 12.628-81.043 28.352-117.93 47.258-46.343 23.746-70.999 48.168-75.384 74.668-8.018 48.339 14.697 77.088 35.162 92.694 21.354 16.281 44.434 21.444 45.41 21.648l5.746-26.157c-2.905-.654-71.01-16.731-59.893-83.815 1.973-11.9 14.183-31.138 61.179-55.217C-49.698 75.88-5.725 60.5 29.608 48.14c19.982-6.984 37.23-13.015 49.988-18.445 35.161-14.964 46.985-38.368 50.716-55.377A72.504 72.504 0 0 0 131.984-41h-26.81a45.581 45.581 0 0 1-1.051 9.587C100.671-15.636 88.879-3.361 69.09 5.057z" fill="#E2EAEE"/><path d="M62.014 232.135c72.895-6.426 150.079-12.853 155.439 13.925 2.123 10.625 2.059 23.093 1.212 34.276-6.594 36.874-42.468 66.725-59.581 77.041H-12.779c-42.142-2.633-102.063-40.825-109.698-77.041-4.438-16.56-3.141-43.498 39.77-63.196 39.665-18.209 71.825 21.422 144.72 14.995z" fill="#E2E9EE"/><path d="m13.347 177.165-52.228-59.147 12.05-10.625L17.42 157.5l106.396-49.861 6.829 14.546-117.298 54.98zM31.048 212.866l-.622-.075-154.518-20.115 2.08-15.939 153.896 20.041 198.759-5.345.429 16.067-200.024 5.366z" fill="#303855"/><path d="M159.03 127.702s9.648 14.995 22.512 5.355c10.302-7.712 87.893-77.185 118.456-104.605V2.411l-169.912 68.52 28.944 56.77z" fill="#262E4B"/><path d="M271.59 234.278c-19.8 0-35.912-16.099-35.912-35.882 0-19.784 16.112-35.883 35.912-35.883 11.545 0 21.836 5.484 28.407 13.967v-21.561a51.74 51.74 0 0 0-28.407-8.473c-28.666 0-51.992 23.308-51.992 51.95 0 28.641 23.326 51.949 51.992 51.949a51.74 51.74 0 0 0 28.407-8.473v-21.561c-6.571 8.483-16.862 13.967-28.407 13.967z" fill="#303855"/><path d="M271.593 223.031c13.618 0 24.656-11.03 24.656-24.635 0-13.606-11.038-24.636-24.656-24.636-13.617 0-24.655 11.03-24.655 24.636 0 13.605 11.038 24.635 24.655 24.635z" fill="#262E4B"/><path d="m266.168 152.562 15.576 3.963L300 85.039V52.54l-7.793-1.992-26.039 102.013z" fill="#303855"/><path d="m118.295 142.697 21.44 34.276-108.272 7.497 86.832-41.773zM123.12 16.84c-12.21 8.987-72.895 33.205-72.895 33.205l3.752 10.176 107.199-41.774L146.779-41h-5.681l1.854 8.033s.536 34.812-19.832 49.807z" fill="#262E4B"/><path d="M46.139 81.183 30.799-41h-16.21L30.178 83.175l15.962-1.992z" fill="#303855"/><path d="M91.007 79.567 72.24 87.478l13.334 31.582 18.767-7.911-13.334-31.582zM76.777 122.131 43.3 133.55 32 102.53l33.232-11.782 11.545 31.383z" fill="#262E4B"/><path d="M-13.453 109.557 299.999-4.775v-8.547l-2.755-7.552L-18.963 94.465a104.021 104.021 0 0 0-31.646 18.38L-236 269.807v20.406l195.79-165.114a87.902 87.902 0 0 1 26.757-15.542z" fill="#303855"/></g></g><path opacity=".35" d="M206 64.5c0 13.531-10.969 24.5-24.5 24.5S157 78.031 157 64.5 167.969 40 181.5 40 206 50.969 206 64.5z" fill="url(#c)"/><path opacity=".35" d="M116 158c0 20.435-16.566 37-37 37s-37-16.565-37-37 16.566-37 37-37 37 16.565 37 37z" fill="url(#d)"/><g filter="url(#e)"><path d="M193 64.5c0 6.351-5.149 11.5-11.5 11.5S170 70.851 170 64.5 175.149 53 181.5 53 193 58.149 193 64.5z" fill="url(#f)"/></g><path opacity=".35" d="M280 183c0 27.614-22.386 50-50 50s-50-22.386-50-50 22.386-50 50-50 50 22.386 50 50z" fill="url(#g)"/><g filter="url(#h)"><path d="M254.324 183.676c0 13.06-10.89 23.648-24.324 23.648-13.434 0-24.324-10.588-24.324-23.648 0-13.061 10.89-23.649 24.324-23.649 13.434 0 24.324 10.588 24.324 23.649z" fill="url(#i)"/></g><g filter="url(#j)"><path d="M97 158.5c0 9.665-8.059 17.5-18 17.5s-18-7.835-18-17.5S69.059 141 79 141s18 7.835 18 17.5z" fill="url(#k)"/></g><g opacity=".15" filter="url(#l)"><path d="M304 222c0 2.209-63.128 4-141 4s-141-1.791-141-4 63.128-4 141-4 141 1.791 141 4z" fill="#151B31"/></g><path d="M23 222h279v13H23v-13z" fill="#fff"/><defs><linearGradient id="c" x1="181.5" y1="40" x2="181.5" y2="89" gradientUnits="userSpaceOnUse"><stop stop-color="#6CB8FF"/><stop offset="1" stop-color="#176BFA"/></linearGradient><linearGradient id="d" x1="79" y1="121" x2="79" y2="195" gradientUnits="userSpaceOnUse"><stop stop-color="#6CB8FF"/><stop offset="1" stop-color="#176BFA"/></linearGradient><linearGradient id="f" x1="181.5" y1="53" x2="181.5" y2="76" gradientUnits="userSpaceOnUse"><stop stop-color="#6CB8FF"/><stop offset="1" stop-color="#176BFA"/></linearGradient><linearGradient id="g" x1="230" y1="133" x2="230" y2="233" gradientUnits="userSpaceOnUse"><stop stop-color="#6CB8FF"/><stop offset="1" stop-color="#176BFA"/></linearGradient><linearGradient id="i" x1="230" y1="160.027" x2="230" y2="207.324" gradientUnits="userSpaceOnUse"><stop stop-color="#6CB8FF"/><stop offset="1" stop-color="#176BFA"/></linearGradient><linearGradient id="k" x1="79" y1="141" x2="79" y2="176" gradientUnits="userSpaceOnUse"><stop stop-color="#6CB8FF"/><stop offset="1" stop-color="#176BFA"/></linearGradient><filter id="e" x="170" y="49" width="23" height="27" filterUnits="userSpaceOnUse" color-interpolation-filters="sRGB"><feFlood flood-opacity="0" result="BackgroundImageFix"/><feBlend in="SourceGraphic" in2="BackgroundImageFix" result="shape"/><feColorMatrix in="SourceAlpha" values="0 0 0 0 0 0 0 0 0 0 0 0 0 0 0 0 0 0 127 0" result="hardAlpha"/><feOffset dy="-4"/><feGaussianBlur stdDeviation="3"/><feComposite in2="hardAlpha" operator="arithmetic" k2="-1" k3="1"/><feColorMatrix values="0 0 0 0 0.0741667 0 0 0 0 0.192833 0 0 0 0 0.370833 0 0 0 0.2 0"/><feBlend in2="shape" result="effect1_innerShadow"/></filter><filter id="h" x="205.676" y="156.027" width="48.649" height="51.297" filterUnits="userSpaceOnUse" color-interpolation-filters="sRGB"><feFlood flood-opacity="0" result="BackgroundImageFix"/><feBlend in="SourceGraphic" in2="BackgroundImageFix" result="shape"/><feColorMatrix in="SourceAlpha" values="0 0 0 0 0 0 0 0 0 0 0 0 0 0 0 0 0 0 127 0" result="hardAlpha"/><feOffset dy="-4"/><feGaussianBlur stdDeviation="3"/><feComposite in2="hardAlpha" operator="arithmetic" k2="-1" k3="1"/><feColorMatrix values="0 0 0 0 0.0741667 0 0 0 0 0.192833 0 0 0 0 0.370833 0 0 0 0.2 0"/><feBlend in2="shape" result="effect1_innerShadow"/></filter><filter id="j" x="61" y="137" width="36" height="39" filterUnits="userSpaceOnUse" color-interpolation-filters="sRGB"><feFlood flood-opacity="0" result="BackgroundImageFix"/><feBlend in="SourceGraphic" in2="BackgroundImageFix" result="shape"/><feColorMatrix in="SourceAlpha" values="0 0 0 0 0 0 0 0 0 0 0 0 0 0 0 0 0 0 127 0" result="hardAlpha"/><feOffset dy="-4"/><feGaussianBlur stdDeviation="3"/><feComposite in2="hardAlpha" operator="arithmetic" k2="-1" k3="1"/><feColorMatrix values="0 0 0 0 0.0741667 0 0 0 0 0.192833 0 0 0 0 0.370833 0 0 0 0.2 0"/><feBlend in2="shape" result="effect1_innerShadow"/></filter><filter id="l" x="13" y="209" width="300" height="26" filterUnits="userSpaceOnUse" color-interpolation-filters="sRGB"><feFlood flood-opacity="0" result="BackgroundImageFix"/><feBlend in="SourceGraphic" in2="BackgroundImageFix" result="shape"/><feGaussianBlur stdDeviation="4.5" result="effect1_foregroundBlur"/></filter></defs></svg>