<svg width="325" height="284" fill="none" xmlns="http://www.w3.org/2000/svg"><g filter="url(#a)"><path d="M242.756 126.439c0-42.215-35.535-76.439-79.378-76.439S84 84.224 84 126.439c0 20.888 8.701 39.741 22.744 53.585l58.349 56.187 54.398-55.747c14.367-13.833 23.265-32.94 23.265-54.025z" fill="url(#b)"/></g><g filter="url(#c)"><path d="M163.077 180.155c28.76 0 52.078-23.312 52.078-52.078 0-28.765-23.318-52.077-52.078-52.077S111 99.312 111 128.077c0 28.766 23.317 52.078 52.077 52.078z" fill="url(#d)"/></g><path d="M150.992 127.289c0-1.359.194-2.718.68-3.98l-7.184-5.533a21.109 21.109 0 0 0-2.232 9.513c0 3.398.776 6.601 2.232 9.416l7.184-5.533c-.486-1.165-.68-2.524-.68-3.883z" fill="#B9B9B9"/><path d="m144.492 117.877 7.183 5.533c1.651-5.145 6.31-8.737 11.94-8.737a12.35 12.35 0 0 1 7.863 2.815l6.212-6.212c-3.786-3.301-8.639-5.339-14.075-5.339-8.445 0-15.725 4.854-19.123 11.94zM163.615 123.412v8.251h11.454c-1.068 5.242-5.533 8.251-11.454 8.251-5.63 0-10.289-3.592-11.94-8.639l-7.183 5.533c3.398 6.989 10.678 11.842 19.123 11.842 10.678 0 20.385-7.765 20.385-21.355 0-1.262-.194-2.621-.486-3.883h-19.899z" fill="#B9B9B9"/><path d="M163.609 123.412v8.251h11.455c-.583 2.815-2.136 4.951-4.369 6.407l6.795 5.241c3.883-3.688 6.504-9.027 6.504-16.016 0-1.262-.194-2.621-.485-3.883h-19.9z" fill="#B9B9B9"/><defs><linearGradient id="b" x1="163.378" y1="50" x2="163.378" y2="236.211" gradientUnits="userSpaceOnUse"><stop stop-color="#6CB8FF"/><stop offset="1" stop-color="#176BFA"/></linearGradient><linearGradient id="d" x1="163.077" y1="76" x2="163.077" y2="180.155" gradientUnits="userSpaceOnUse"><stop stop-color="#fff"/><stop offset="1" stop-color="#E6E6E6"/></linearGradient><filter id="a" x="84" y="46" width="158.756" height="190.211" filterUnits="userSpaceOnUse" color-interpolation-filters="sRGB"><feFlood flood-opacity="0" result="BackgroundImageFix"/><feBlend in="SourceGraphic" in2="BackgroundImageFix" result="shape"/><feColorMatrix in="SourceAlpha" values="0 0 0 0 0 0 0 0 0 0 0 0 0 0 0 0 0 0 127 0" result="hardAlpha"/><feOffset dy="-4"/><feGaussianBlur stdDeviation="3"/><feComposite in2="hardAlpha" operator="arithmetic" k2="-1" k3="1"/><feColorMatrix values="0 0 0 0 0.0741667 0 0 0 0 0.192833 0 0 0 0 0.370833 0 0 0 0.2 0"/><feBlend in2="shape" result="effect1_innerShadow"/></filter><filter id="c" x="91" y="71" width="144.155" height="144.155" filterUnits="userSpaceOnUse" color-interpolation-filters="sRGB"><feFlood flood-opacity="0" result="BackgroundImageFix"/><feColorMatrix in="SourceAlpha" values="0 0 0 0 0 0 0 0 0 0 0 0 0 0 0 0 0 0 127 0"/><feOffset dy="15"/><feGaussianBlur stdDeviation="10"/><feColorMatrix values="0 0 0 0 0.529167 0 0 0 0 0.34559 0 0 0 0 0.130087 0 0 0 0.2 0"/><feBlend in2="BackgroundImageFix" result="effect1_dropShadow"/><feBlend in="SourceGraphic" in2="effect1_dropShadow" result="shape"/></filter></defs></svg>