<svg width="325" height="284" fill="none" xmlns="http://www.w3.org/2000/svg"><path opacity=".07" d="M162 236c81.738 0 148-43.428 148-97s-66.262-97-148-97S14 85.428 14 139s66.262 97 148 97z" fill="url(#a)"/><path opacity=".2" d="M163.159 214.642c64.012 0 115.904-33.866 115.904-75.642 0-41.776-51.892-75.642-115.904-75.642-64.011 0-115.903 33.866-115.903 75.642 0 41.776 51.892 75.642 115.903 75.642z" fill="url(#b)"/><path opacity=".25" d="M162 193.285c45.793 0 82.915-24.304 82.915-54.285 0-29.98-37.122-54.284-82.915-54.284-45.793 0-82.916 24.304-82.916 54.284 0 29.981 37.123 54.285 82.916 54.285z" fill="url(#c)"/><path d="M206.756 227.991h-90.405c-10.164 0-18.277-7.743-17.653-16.909l9.629-145.5c.535-8.365 8.291-15.039 17.653-15.039h71.058c9.361 0 17.118 6.585 17.653 15.04l9.628 145.499c.714 9.166-7.4 16.909-17.563 16.909z" fill="#343A3F"/><path d="M206.756 219.448h-90.405c-10.164 0-18.277-7.742-17.653-16.909l9.629-145.5c.624-8.454 8.38-15.039 17.742-15.039h71.058c9.361 0 17.118 6.585 17.653 15.04l9.629 145.499c.624 9.167-7.49 16.909-17.653 16.909z" fill="#24497F"/><path d="M206.756 219.448h-90.405c-10.164 0-18.277-7.742-17.653-16.909l9.629-145.5c.624-8.454 8.38-15.039 17.742-15.039h71.058c9.361 0 17.118 6.585 17.653 15.04l9.629 145.499c.624 9.167-7.49 16.909-17.653 16.909z" fill="#525960"/><path d="M116.352 217.134c-4.547 0-8.738-1.78-11.769-4.805-2.496-2.67-3.745-6.052-3.566-9.611l9.629-145.5c.535-7.209 7.221-12.904 15.424-12.904h71.058c8.113 0 14.8 5.606 15.335 12.815l9.628 145.5c.268 3.47-1.069 6.852-3.566 9.611-2.942 3.114-7.222 4.805-11.768 4.805h-90.405v.089z" fill="#1B6FFA"/><path d="M214.692 181.36v3.649c-.09 2.047-1.159 3.738-2.764 4.805v-3.648c1.605-1.068 2.674-2.848 2.764-4.806zM211.927 186.076v3.649l-1.07.534v-3.649a3.007 3.007 0 0 0 1.07-.534z" fill="#24497F"/><path d="M210.858 186.61v3.649c-.357.089-.714.178-.981.267v-3.649c.267 0 .624-.089.981-.267zM209.788 186.966v3.648c-.357.089-.713.089-1.159.089v-3.648c.446 0 .802-.089 1.159-.089z" fill="#24497F"/><path d="M205.954 146.742c3.388 0 6.33 2.581 6.509 5.874l2.228 27.943c.268 3.559-2.407 6.496-5.973 6.496h-93.08c-3.566 0-6.241-2.937-5.973-6.496l2.229-27.943c.267-3.293 3.209-5.874 6.508-5.874h87.552z" fill="#fff"/><path d="M208.718 187.055h-93.079v3.648h93.079v-3.648zM115.638 187.055v3.648h-.089l.089-3.648z" fill="#24497F"/><path d="M115.639 187.055v3.649c-3.388 0-5.885-2.67-5.885-5.963v-3.648c-.089 3.292 2.497 5.873 5.885 5.962zM119.117 136.419v3.649h-.09l.09-3.649z" fill="#24497F"/><path d="M119.116 136.419v3.649c-3.121 0-5.528-2.314-5.528-5.162v-3.648c0 2.848 2.407 5.161 5.528 5.161z" fill="#24497F"/><path d="M202.834 101.802c3.121 0 5.796 2.225 6.063 5.072l1.872 24.028c.268 3.025-2.228 5.606-5.527 5.606h-86.036c-3.299 0-5.796-2.492-5.528-5.606l1.872-24.028c.178-2.758 2.942-5.072 6.063-5.072h81.221z" fill="#fff"/><path d="M210.769 131.436v3.648a5.117 5.117 0 0 1-2.408 4.094v-3.649a5.117 5.117 0 0 0 2.408-4.093z" fill="#24497F"/><path d="M208.363 135.529v3.649l-1.07.534v-3.649c.446-.178.713-.356 1.07-.534zM207.291 136.063v3.649c-.356.089-.624.178-.98.267v-3.649c.356-.089.713-.178.98-.267zM206.311 136.33v3.649c-.356.089-.713.089-1.159.089v-3.649c.446 0 .803 0 1.159-.089zM205.151 136.419h-86.036v3.649h86.036v-3.649zM122.148 92.903v3.648h-.089l.089-3.648z" fill="#24497F"/><path d="M122.148 92.903v3.648c-2.943 0-5.171-1.957-5.171-4.45v-3.648c0 2.403 2.228 4.36 5.171 4.45z" fill="#24497F"/><path d="M200.16 62.824c2.942 0 5.438 1.957 5.616 4.36l1.605 20.824c.179 2.67-2.139 4.806-5.171 4.806h-80.062c-3.032 0-5.35-2.136-5.172-4.806l1.605-20.824c.179-2.403 2.675-4.36 5.617-4.36h75.962z" fill="#fff"/><path d="M207.382 88.542v3.649c-.089 1.424-.892 2.67-2.14 3.47v-3.648c1.248-.801 2.051-2.047 2.14-3.471z" fill="#24497F"/><path d="M205.33 92.013v3.648c-.267.178-.624.356-.98.534v-3.648c.267-.178.624-.356.98-.534zM204.26 92.547v3.648c-.357.09-.624.179-.981.268v-3.65c.357-.088.714-.177.981-.266z" fill="#24497F"/><path d="M203.28 92.814v3.649c-.357.089-.713.089-1.159.089v-3.649c.446 0 .802-.089 1.159-.089z" fill="#24497F"/><path d="M202.211 92.903h-80.063v3.648h80.063v-3.648z" fill="#24497F"/><path d="M134.094 130.457c7.829 0 14.176-5.1 14.176-11.391s-6.347-11.391-14.176-11.391-14.176 5.1-14.176 11.391 6.347 11.391 14.176 11.391zM200.873 111.235h-48.412a1.218 1.218 0 0 1-1.248-1.246c0-.712.535-1.246 1.248-1.246h48.412c.713 0 1.248.534 1.248 1.246.089.712-.535 1.246-1.248 1.246zM195.879 119.333h-43.33a1.218 1.218 0 0 1-1.248-1.246c0-.712.535-1.246 1.248-1.246h43.33c.713 0 1.248.534 1.248 1.246s-.535 1.246-1.248 1.246zM173.77 128.321h-21.309a1.218 1.218 0 0 1-1.248-1.246c0-.712.535-1.246 1.248-1.246h21.309c.713 0 1.248.534 1.248 1.246.089.712-.535 1.246-1.248 1.246zM133.202 180.114c9.159 0 16.583-5.937 16.583-13.26 0-7.323-7.424-13.259-16.583-13.259-9.158 0-16.583 5.936-16.583 13.259s7.425 13.26 16.583 13.26zM204.438 159.913h-48.412a1.218 1.218 0 0 1-1.249-1.246c0-.712.535-1.246 1.249-1.246h48.412c.713 0 1.248.534 1.248 1.246.089.712-.535 1.246-1.248 1.246zM199.446 168.011h-43.331a1.218 1.218 0 0 1-1.248-1.246c0-.712.535-1.245 1.248-1.245h43.331c.713 0 1.248.533 1.248 1.245 0 .623-.535 1.246-1.248 1.246zM177.334 177h-21.308a1.218 1.218 0 0 1-1.249-1.246c0-.712.535-1.246 1.249-1.246h21.308c.713 0 1.248.534 1.248 1.246.089.712-.535 1.246-1.248 1.246zM134.808 86.94c6.894 0 12.482-4.462 12.482-9.967 0-5.504-5.588-9.967-12.482-9.967-6.893 0-12.482 4.463-12.482 9.967 0 5.505 5.589 9.967 12.482 9.967zM193.918 71.189h-39.942c-.624 0-1.07-.445-1.07-1.068s.446-1.068 1.07-1.068h40.031c.625 0 1.07.445 1.07 1.068-.089.623-.535 1.068-1.159 1.068zM189.817 77.863h-35.841c-.624 0-1.07-.445-1.07-1.068s.446-1.067 1.07-1.067h35.841c.624 0 1.07.445 1.07 1.067 0 .623-.535 1.068-1.07 1.068zM171.54 85.338h-17.564c-.624 0-1.07-.444-1.07-1.067s.446-1.068 1.07-1.068h17.653c.624 0 1.07.445 1.07 1.067-.089.624-.535 1.068-1.159 1.068z" fill="#EAEAEA"/><path d="M182.417 43.78h-42.438v1.958a3.287 3.287 0 0 0 3.298 3.292h35.752a3.288 3.288 0 0 0 3.299-3.292V43.78h.089z" fill="#525960"/><defs><linearGradient id="a" x1="162" y1="42" x2="162" y2="236" gradientUnits="userSpaceOnUse"><stop stop-color="#6CB8FF"/><stop offset="1" stop-color="#176BFA"/></linearGradient><linearGradient id="b" x1="163.157" y1="63.358" x2="163.157" y2="214.642" gradientUnits="userSpaceOnUse"><stop stop-color="#6CB8FF"/><stop offset="1" stop-color="#176BFA"/></linearGradient><linearGradient id="c" x1="162" y1="84.716" x2="162" y2="193.285" gradientUnits="userSpaceOnUse"><stop stop-color="#6CB8FF"/><stop offset="1" stop-color="#176BFA"/></linearGradient></defs></svg>