<svg width="325" height="284" fill="none" xmlns="http://www.w3.org/2000/svg"><g opacity=".15" filter="url(#a)"><path d="M258 232c0 1.657-42.533 3-95 3s-95-1.343-95-3 42.533-3 95-3 95 1.343 95 3z" fill="#151B31"/></g><path d="M69 232h188v13H69v-13z" fill="#fff"/><path d="M180.5 136h-33v96h33v-96z" fill="#686D7D"/><path d="M180.5 136H165v96h15.5v-96z" fill="#262E4B"/><path d="M252 171.2H106.6V55H222c22.1 0 40 17.9 40 40v66.2c0 5.6-4.5 10-10 10z" fill="url(#b)"/><path d="M138.5 171.2H76c-5.5 0-10-4.5-10-10V95c0-22.1 17.9-40 40-40h2.5c22.1 0 40 17.9 40 40v66.2c0 5.6-4.5 10-10 10z" fill="url(#c)"/><path d="M177 97c7.18 0 13-5.82 13-13s-5.82-13-13-13-13 5.82-13 13 5.82 13 13 13z" fill="#0D5ACC"/><path d="M171 44h-7v40h7V44zM208 21h-44v23h44V21z" fill="#0D5ACC"/><path fill-rule="evenodd" clip-rule="evenodd" d="M169 21h44v23h-37v28.464A12.945 12.945 0 0 1 182 71c7.18 0 13 5.82 13 13s-5.82 13-13 13-13-5.82-13-13V21z" fill="url(#d)"/><path opacity=".25" d="M180.5 171.5h-33v16h33v-16z" fill="#262E4B"/><path opacity=".35" d="M90 82h29v8H90v-8z" fill="#2A324F"/><path d="M90 78h29v8H90v-8zM188 84a6 6 0 1 1-12 0 6 6 0 0 1 12 0z" fill="#fff"/><defs><linearGradient id="b" x1="184.3" y1="55" x2="184.3" y2="171.2" gradientUnits="userSpaceOnUse"><stop stop-color="#262E4B"/><stop offset="1" stop-color="#525A75"/></linearGradient><linearGradient id="c" x1="107.25" y1="55" x2="107.25" y2="171.2" gradientUnits="userSpaceOnUse"><stop stop-color="#5A6075"/><stop offset="1" stop-color="#9BA0AF"/></linearGradient><linearGradient id="d" x1="191" y1="21" x2="191" y2="97" gradientUnits="userSpaceOnUse"><stop stop-color="#6CB8FF"/><stop offset="1" stop-color="#176BFA"/></linearGradient><filter id="a" x="59" y="220" width="208" height="24" filterUnits="userSpaceOnUse" color-interpolation-filters="sRGB"><feFlood flood-opacity="0" result="BackgroundImageFix"/><feBlend in="SourceGraphic" in2="BackgroundImageFix" result="shape"/><feGaussianBlur stdDeviation="4.5" result="effect1_foregroundBlur"/></filter></defs></svg>