<svg width="106" height="48" xmlns="http://www.w3.org/2000/svg"><g fill="#B9C6CD" fill-rule="evenodd"><path d="M6.391 26.389c4.803-1.654 5.62-5.962 5.007-9.923 0-.143.123-.245.245-.204 4.599 2.246 9.769 7.146 9.769 14.496 0 5.635-4.373 10.617-10.729 10.617A10.225 10.225 0 0 1 .442 34.148a10.202 10.202 0 0 1 4.477-11.7c.123-.081.287 0 .287.143.061.756.265 2.654 1.103 3.798h.082zM34.942 36.903l.347-.408 1.084 3.43-.143.143c-.818.755-2.044 1.143-3.618 1.143h-.061c-1.431 0-2.555-.408-3.331-1.163-.777-.776-1.186-1.94-1.186-3.41v-9.35h-2.759V23.51h2.759v-4.553h4.251v4.553h3.372v3.777h-3.392v8.432c0 .388.102 1.633 1.287 1.633.613 0 1.186-.224 1.39-.469v.02zm2.248 3.92V23.53h4.251v17.293H37.19zm2.105-24.357a2.553 2.553 0 1 1-2.554 2.573c0-1.389 1.164-2.573 2.554-2.573zm13.57 6.636c3.679 0 5.702 2 5.702 5.655v12.046h-4.251V29.778c-.081-1.96-1.022-2.858-3.024-2.858-1.799 0-3.25 1.102-3.986 2.041v11.842h-4.25V23.551h4.25v1.837c1.227-1.184 3.189-2.246 5.559-2.246v-.04zm19.845 2.225v-8.126h4.25v23.643h-4.25v-1.797a7.012 7.012 0 0 1-5.048 2.185c-4.64 0-7.746-3.635-7.746-9.045 0-5.43 3.106-9.065 7.746-9.065a6.955 6.955 0 0 1 5.048 2.205zm0 3.655a5.24 5.24 0 0 0-4.006-2.042c-2.636 0-4.394 2.103-4.394 5.247 0 3.124 1.758 5.227 4.394 5.227 1.533 0 3.209-.817 4.006-2.001v-6.431zm14.183-5.86c5.027 0 8.522 3.88 8.522 9.392v1.163H82.56c.429 2.43 2.35 3.982 4.966 3.982 1.656 0 3.475-.715 4.517-1.756l.286-.245 2.023 2.9-.204.183a9.94 9.94 0 0 1-6.969 2.49c-5.314 0-9.054-3.736-9.054-9.064a8.73 8.73 0 0 1 2.466-6.393 8.735 8.735 0 0 1 6.322-2.652h-.02zm-4.353 7.35h8.726c-.245-2.593-2.391-3.777-4.373-3.777-2.984 0-4.108 2.246-4.353 3.797v-.02zm23.155-7.35h.306v4.288l-.367-.062a5.756 5.756 0 0 0-1.084-.102c-1.369 0-3.27.96-3.985 1.98v11.577h-4.251V23.53h4.272v1.92c1.41-1.47 3.269-2.328 5.109-2.328z"/></g></svg>