<svg width="84" height="48" xmlns="http://www.w3.org/2000/svg"><g fill="#B9C6CD" fill-rule="nonzero"><path d="M45.273.142c-.275.042-.539 1.053-1.071 1.58-.388.38-.873.356-1.13.826-.098.175-.066.475-.177.762-.217.576-.981.627-.981 1.254-.002.677.637.806 1.191 1.287.432.387.474.653.997.84.447.152 1.111-.344 1.71-.166.491.147.961.252 1.072.756.098.465-.006 1.185-.602 1.102-.201-.022-1.072-.315-2.142-.202-1.29.147-2.763.568-2.907 2.005-.08.804.915 1.751 1.876 1.559.664-.131.35-.914.712-1.294.474-.487 3.161 1.7 5.659 1.7 1.052 0 1.834-.265 2.611-1.078.072-.062.161-.195.273-.203.106.008.291.112.352.157 2.012 1.615 3.532 4.855 10.926 4.893 1.04.005 2.225.502 3.192 1.383.863.797 1.367 2.036 1.858 3.294.739 1.887 2.066 3.723 4.076 5.766.11.11 1.765 1.395 1.897 1.491.022.013.143.304.101.466-.049 1.225-.227 4.786 2.431 4.947.65.033.479-.423.479-.737-.001-.62-.115-1.237.213-1.872.448-.873-.95-1.276-.909-3.164.029-1.408-1.155-1.168-1.756-2.241-.346-.622-.654-.951-.631-1.712.135-4.278-.912-7.09-1.434-7.78-.406-.52-.743-.728-.371-.97 2.218-1.463 2.722-2.825 2.722-2.825 1.179-2.77 2.24-5.3 3.703-6.413.294-.23 1.05-.793 1.514-1.015 1.364-.643 2.083-1.032 2.479-1.418.628-.61 1.123-1.884.522-2.656-.748-.953-2.041-.197-2.612.141-4.078 2.418-4.679 6.683-6.091 9.132-1.127 1.957-2.959 3.395-4.598 3.512-1.228.091-2.552-.157-3.87-.735-3.207-1.404-4.961-3.217-5.375-3.538-.861-.664-7.548-7.222-12.966-7.49 0 0-.672-1.344-.842-1.367-.396-.05-.801.804-1.092.903-.274.091-.733-.925-1.009-.88zM21.422 39.28c-.51-.012-.944-.43-.944-.948l.002-16.881h-5.57V40.06c0 .912.74 1.656 1.647 1.656h9.735c.915 0 1.645-.744 1.645-1.656V21.45h-5.564l-.006 16.882c0 .518-.433.936-.945.948zM40.07 21.45h-8.43c-.997 0-1.81.811-1.81 1.818v18.448h5.575V24.794a.936.936 0 0 1 .942-.93c.521 0 .938.402.95.915v16.937h5.553V24.78a.929.929 0 0 1 .943-.914c.515 0 .94.41.944.929v16.922h5.575V23.268a1.813 1.813 0 0 0-1.811-1.817H40.07zM7.456 24.83a.953.953 0 0 0-.943-.965h-.946v10.25h.946a.94.94 0 0 0 .943-.952V24.83zm3.738 11.793H5.567v5.093H0V21.451h11.229c1.006 0 1.79.816 1.79 1.825v11.522c0 1.011-.815 1.825-1.825 1.825zm58.223.561c-1.119 0-2.058.966-2.058 2.137 0 1.174.939 2.133 2.093 2.133 1.146 0 2.073-.959 2.073-2.133 0-1.173-.927-2.137-2.073-2.137h-.035zm2.507 2.13c0 1.377-1.104 2.496-2.472 2.496a2.486 2.486 0 0 1-2.491-2.496c0-1.358 1.11-2.493 2.451-2.493 1.408 0 2.512 1.101 2.512 2.493z"/><path d="M69.195 39.156c.387 0 .591-.137.591-.412 0-.244-.197-.37-.574-.37h-.111v.782h.094zm1.425 1.602h-.664l-.855-1.136v1.136h-.543v-2.873h.571c.775 0 1.188.293 1.188.853a.835.835 0 0 1-.583.803l-.04.015.926 1.202zm-10.961-6.64v-9.33a.934.934 0 0 0-.948-.913.94.94 0 0 0-.943.927v9.317h1.891zm0 7.598V36.63h-1.891v5.087h-5.565V23.268c0-1.007.813-1.817 1.81-1.817h9.401c1 0 1.812.81 1.812 1.817v18.448h-5.567z"/></g></svg>