<svg width="153" height="37" fill="none" xmlns="http://www.w3.org/2000/svg"><path d="M41.624 13.4V26h2.538v-2.25l1.386-1.494L47.888 26h2.934l-3.474-5.634 3.294-3.618h-2.844l-3.636 3.942V13.4h-2.538zm9.673 5.49c-.396.72-.576 1.548-.576 2.502 0 .954.198 1.782.594 2.502.396.72.972 1.26 1.728 1.638.756.396 1.638.576 2.682.576.792 0 1.494-.126 2.106-.414.612-.288 1.098-.666 1.476-1.17.36-.486.594-1.044.702-1.656h-2.502c-.108.432-.342.774-.684.99-.342.216-.774.324-1.278.324-.648 0-1.17-.18-1.53-.576-.378-.378-.594-.9-.648-1.584v-.072h6.714c.036-.252.072-.54.072-.864-.018-.9-.234-1.674-.63-2.34a3.98 3.98 0 0 0-1.674-1.548c-.72-.36-1.53-.558-2.466-.558-.936 0-1.746.198-2.448.594a4.144 4.144 0 0 0-1.638 1.656zm6.318 1.404h-4.194c.072-.54.288-.954.666-1.278.378-.324.846-.486 1.404-.486.576 0 1.044.162 1.422.468.378.306.612.738.702 1.296zm5.374-3.546h-2.7l3.564 9.306-.234.612c-.144.324-.27.522-.414.63-.144.108-.378.162-.702.162h-1.404V29.6h2.466c.468 0 .846-.072 1.134-.234.288-.162.54-.396.738-.72a9.74 9.74 0 0 0 .612-1.332l4.104-10.566h-2.718l-2.196 6.642-2.25-6.642zm7.038 0L73.051 26h2.7l1.656-5.58 1.62 5.58h2.7l3.042-9.252h-2.592l-1.89 6.534-1.692-6.534H76.31l-1.746 6.516-1.854-6.516h-2.682zm17.31 8.784c.739.396 1.603.576 2.575.576.972 0 1.818-.18 2.556-.576.738-.396 1.314-.936 1.71-1.656.396-.72.612-1.548.612-2.502 0-.936-.216-1.764-.612-2.484s-.972-1.26-1.71-1.656c-.738-.396-1.584-.594-2.556-.594s-1.836.198-2.574.594c-.738.396-1.314.936-1.71 1.656-.396.72-.594 1.548-.594 2.484 0 .936.198 1.764.594 2.484.396.72.972 1.278 1.71 1.674zm4.249-2.232c-.414.504-.972.738-1.674.738s-1.26-.234-1.674-.738c-.414-.486-.612-1.134-.612-1.926s.198-1.422.612-1.926c.414-.486.972-.738 1.674-.738s1.26.252 1.674.738c.414.504.63 1.134.63 1.926s-.216 1.44-.63 1.926zm10.235-6.552h-.432c-.684 0-1.242.126-1.638.36a2.803 2.803 0 0 0-1.026 1.026l-.234-1.386h-2.304V26h2.538v-4.536c0-.738.162-1.332.504-1.764.324-.432.864-.648 1.584-.648h1.008v-2.304zm10.086-3.348h-2.538v4.5c-.666-.828-1.602-1.26-2.79-1.26-.828 0-1.566.198-2.214.594a4.008 4.008 0 0 0-1.53 1.656c-.36.72-.54 1.53-.54 2.466 0 .954.18 1.782.54 2.502.36.72.882 1.278 1.53 1.674.648.396 1.368.576 2.196.576 1.206 0 2.16-.45 2.88-1.386l.252 1.278h2.214V13.4zm-3.114 9.918c-.414.486-.954.72-1.638.72-.684 0-1.242-.234-1.656-.738-.414-.486-.612-1.134-.612-1.926s.198-1.422.612-1.926c.414-.486.972-.738 1.656-.738.684 0 1.224.252 1.638.738.396.504.612 1.152.612 1.944s-.216 1.44-.612 1.926zm5.118.684c-.234.234-.342.522-.342.882s.108.666.342.882c.234.234.54.342.9.342s.648-.108.9-.342c.234-.216.36-.522.36-.882s-.126-.648-.36-.882a1.33 1.33 0 0 0-.9-.342c-.36 0-.666.126-.9.342zm10.411 1.206c.738-.612 1.206-1.44 1.386-2.52h-1.98c-.126.54-.378.972-.774 1.296-.396.324-.9.468-1.494.468-.792 0-1.422-.27-1.89-.846-.468-.576-.702-1.314-.702-2.232 0-.9.234-1.62.702-2.196.468-.558 1.098-.846 1.89-.846.576 0 1.062.162 1.458.468.396.324.648.738.792 1.26h1.998c-.18-1.044-.648-1.854-1.368-2.466-.738-.612-1.674-.918-2.826-.918-.936 0-1.746.198-2.448.594a4.054 4.054 0 0 0-1.62 1.638c-.396.72-.576 1.53-.576 2.466 0 .936.18 1.764.558 2.484.378.72.918 1.278 1.62 1.674.684.396 1.494.576 2.412.576 1.152 0 2.106-.288 2.862-.9zm4.676.324c.72.396 1.53.576 2.466.576.918 0 1.728-.18 2.448-.576a4.076 4.076 0 0 0 1.656-1.656c.396-.72.594-1.548.594-2.484 0-.918-.198-1.728-.594-2.448a4.12 4.12 0 0 0-1.656-1.674c-.72-.396-1.53-.594-2.448-.594-.936 0-1.746.198-2.466.594a4.12 4.12 0 0 0-1.656 1.674c-.396.72-.576 1.53-.576 2.448 0 .936.18 1.764.576 2.484.396.72.936 1.26 1.656 1.656zm4.428-1.926c-.504.576-1.152.846-1.962.846-.828 0-1.476-.27-1.962-.846-.504-.576-.738-1.314-.738-2.214 0-.9.234-1.62.738-2.196.486-.576 1.134-.864 1.962-.864.81 0 1.458.288 1.962.864.504.576.756 1.296.756 2.196 0 .9-.252 1.638-.756 2.214zm17.403-5.94c-.648-.648-1.458-.99-2.466-.99-.756 0-1.386.162-1.908.45-.54.288-.954.702-1.278 1.224a2.87 2.87 0 0 0-1.134-1.26 3.534 3.534 0 0 0-1.71-.414c-1.152.018-2.052.45-2.7 1.314l-.216-1.206h-1.692V26h1.944v-4.932c0-.828.18-1.476.576-1.98.396-.486.918-.738 1.584-.738.63 0 1.116.216 1.44.63.324.414.504 1.026.504 1.836V26h1.962v-4.986c0-.828.18-1.476.576-1.944.396-.468.918-.72 1.602-.72.63 0 1.116.216 1.44.63.324.432.486 1.044.486 1.836V26h1.944v-5.202c0-1.44-.324-2.484-.954-3.132z" fill="#fff"/><path opacity=".85" d="M17.733 5.438a4.221 4.221 0 0 1 6.093 5.844L9.014 26.727a4.221 4.221 0 1 1-6.093-5.843L17.733 5.438z" fill="#FE2B25"/><path opacity=".85" d="M23.427 27.477a4.243 4.243 0 0 1-5.417 6.532L3.28 21.793a4.243 4.243 0 0 1 5.417-6.532l14.73 12.216z" fill="#FFBA00"/><path opacity=".85" d="M1.742 0a8 8 0 0 1 8 8v27a8 8 0 0 1-8-8V0z" fill="#2584FC"/></svg>