<svg xmlns="http://www.w3.org/2000/svg" viewBox="0 0 40.576 7.938" height="30.002" width="153.358"><path d="M7.797 2.32h.755v2.172L9.634 3.32h.846L9.5 4.393l1.034 1.676H9.66l-.696-1.114-.412.445v.67h-.755zm2.707 2.378c0-.286.057-.534.17-.744a1.22 1.22 0 01.487-.493c.21-.118.453-.177.728-.177s.523.055.734.166.38.26.498.46.184.428.187.696c.001.086-.006.172-.02.257H11.29v.02c.018.2.082.357.193.47s.262.17.455.17a.69.69 0 00.38-.096.48.48 0 00.204-.298h.744c-.027.18-.1.35-.21.493s-.257.262-.44.348a1.51 1.51 0 01-.627.123c-.307 0-.573-.057-.798-.17a1.23 1.23 0 01-.514-.487 1.52 1.52 0 01-.177-.744zm2.05-.327c-.025-.168-.095-.296-.21-.386s-.252-.14-.423-.14c-.164 0-.304.048-.418.145s-.177.22-.198.38zm1.6-1.055l.67 1.976.653-1.976h.81l-1.22 3.144a2.43 2.43 0 01-.182.391.55.55 0 01-.22.214.665.665 0 01-.337.075h-.734v-.637H14c.096 0 .166-.016.21-.048s.084-.095.123-.187l.07-.182-1.06-2.77zm2.095 0h.798l.552 1.94.52-1.94h.68l.503 1.944.565-1.944h.77l-.91 2.753h-.803l-.482-1.66-.492 1.66h-.803l-.9-2.753zm5.917 2.785a1.66 1.66 0 01-.766-.17c-.214-.114-.4-.287-.51-.498s-.177-.46-.177-.74.06-.528.176-.736a1.24 1.24 0 01.506-.493c.22-.118.477-.177.766-.177s.543.06.76.177.39.28.506.493c.12.214.182.46.182.74s-.06.53-.182.744a1.24 1.24 0 01-.506.493c-.218.114-.47.17-.76.17zm0-.616c.21 0 .377-.073.498-.22s.187-.337.187-.573-.06-.427-.187-.573c-.12-.146-.287-.22-.498-.22s-.373.073-.498.22-.182.337-.182.573.06.427.182.573.29.22.498.22zM25.7 3.314V4h-.3c-.214 0-.37.064-.47.193s-.15.304-.15.525V6.07h-.755V3.317h.686l.07.412c.082-.136.184-.237.305-.305s.284-.107.487-.107h.13zm3-.993v3.75h-.66l-.075-.38a1.02 1.02 0 01-.857.412c-.243 0-.46-.057-.653-.17A1.23 1.23 0 0126 5.435c-.107-.214-.16-.462-.16-.744s.054-.523.16-.734.262-.378.455-.493c.2-.12.427-.18.66-.177.357 0 .634.125.833.375V2.32h.755zm-1.414 3.165c.204 0 .366-.07.487-.214s.182-.337.182-.573-.06-.432-.182-.578a.6.6 0 00-.487-.22c-.204 0-.368.073-.493.22s-.182.337-.182.573.06.427.182.573.29.22.493.22zm1.908.252c0-.107.034-.195.102-.262s.16-.102.268-.102.196.034.268.102.107.155.107.262-.036.195-.107.262-.16.102-.268.102-.196-.034-.268-.102-.102-.155-.102-.262zm3.612-.653c-.054.318-.19.568-.412.75s-.505.268-.852.268c-.27 0-.51-.057-.718-.17a1.22 1.22 0 01-.482-.498c-.11-.214-.166-.46-.166-.74s.057-.523.17-.734.277-.375.482-.487c.21-.118.453-.177.728-.177.343 0 .623.09.84.273s.353.423.407.734h-.595a.672.672 0 00-.236-.375.68.68 0 00-.434-.139.715.715 0 00-.565.252c-.14.168-.21.386-.21.653s.07.493.21.664a.7.7 0 00.565.252c.18 0 .327-.046.445-.14a.67.67 0 00.23-.386zm1.713 1.018c-.275 0-.52-.057-.734-.17s-.375-.282-.493-.493-.17-.46-.17-.74.057-.518.17-.728a1.25 1.25 0 01.493-.498c.214-.118.46-.177.734-.177s.518.06.728.177.378.284.493.498.177.453.177.728-.06.525-.177.74-.28.375-.493.493-.453.17-.728.17zm0-.493c.243 0 .437-.084.584-.252s.225-.39.225-.66-.075-.486-.225-.653a.73.73 0 00-.584-.257.73.73 0 00-.584.257c-.146.168-.22.386-.22.653s.073.487.22.66.34.252.584.252zm5.03-2.314c.3 0 .545.098.734.298.19.193.284.503.284.932V6.07h-.578V4.527c0-.24-.048-.42-.145-.546s-.24-.187-.428-.187c-.2 0-.36.07-.477.214s-.17.332-.17.578V6.07h-.584V4.527c0-.243-.05-.425-.15-.546s-.24-.187-.428-.187c-.196 0-.353.073-.47.22s-.17.343-.17.59V6.07h-.578V3.327h.503l.063.362a.97.97 0 01.803-.391c.193 0 .362.04.506.123s.26.207.337.375c.096-.157.223-.28.38-.364s.346-.134.568-.134z" fill="#3b425b"/><path d="M3.626.918A.96.96 0 014.98.89a.96.96 0 01.028 1.354L1.65 5.746a.96.96 0 01-1.354.028.96.96 0 01-.028-1.354z" opacity=".85" fill="#ffc737"/><path d="M4.918 6.232a.962.962 0 11-1.229 1.481L.35 4.943a.962.962 0 111.229-1.481z" opacity=".85" fill="#ed2828"/><path d="M0 0c1.002 0 1.814.812 1.814 1.814v6.123A1.813 1.813 0 010 6.123z" opacity=".85" fill="#4180c6"/></svg>