<svg width="116" height="48" xmlns="http://www.w3.org/2000/svg"><g fill-rule="nonzero" fill="none"><path d="M91.06 21.815c-1.25 0-2.244.994-2.244 2.272 0 1.165.739 1.96 1.847 1.96h.056c1.222 0 2.273-.824 2.301-2.272 0-1.136-.767-1.96-1.96-1.96zM25.049 21.24a.314.314 0 0 0-.284-.264c-.118-.01-2.425-.045-2.425-.045s-1.93-1.874-2.12-2.064c-.19-.19-.563-.133-.708-.09l-.969.3a6.802 6.802 0 0 0-.464-1.14c-.687-1.31-1.693-2.004-2.908-2.006h-.005c-.085 0-.168.008-.252.015a3.81 3.81 0 0 0-.11-.126c-.53-.567-1.209-.843-2.022-.819-1.57.045-3.134 1.18-4.401 3.193-.892 1.417-1.571 3.197-1.764 4.576l-3.09.957c-.91.286-.94.314-1.058 1.172C2.38 25.547 0 43.957 0 43.957l19.952 3.45 8.648-2.149S25.07 21.404 25.049 21.24zm-7.505-1.854-1.548.48c-.012-.795-.106-1.901-.477-2.857 1.192.226 1.778 1.574 2.025 2.377zm-2.592.803-3.331 1.032c.322-1.233.932-2.46 1.682-3.265.279-.3.67-.633 1.131-.824.434.907.529 2.19.518 3.057zm-2.139-4.143c.369-.008.679.073.944.247-.424.22-.834.537-1.219.95-.997 1.07-1.761 2.73-2.066 4.333l-2.736.847c.54-2.522 2.654-6.307 5.077-6.377z" fill="#B9C6CD"/><path d="M24.766 20.977c-.118-.01-2.425-.045-2.425-.045s-1.93-1.874-2.12-2.064a.471.471 0 0 0-.268-.123l.001 28.662 8.647-2.149s-3.528-23.853-3.55-24.017a.315.315 0 0 0-.285-.264z" fill="#879CA7"/><path d="m15.159 25.423-1.005 3.757s-1.12-.51-2.448-.426c-1.947.123-1.968 1.351-1.948 1.66.106 1.68 4.527 2.047 4.775 5.983.195 3.097-1.643 5.215-4.29 5.383-3.179.2-4.929-1.675-4.929-1.675l.674-2.864s1.761 1.329 3.171 1.24c.92-.059 1.25-.808 1.216-1.337-.138-2.192-3.738-2.063-3.965-5.665-.192-3.03 1.799-6.102 6.19-6.379 1.693-.109 2.559.323 2.559.323z" fill="#F4F6F7"/><path d="M39.987 33.29c-.994-.539-1.505-.993-1.505-1.619 0-.795.71-1.306 1.818-1.306 1.29 0 2.443.54 2.443.54l.908-2.785s-.835-.653-3.295-.653c-3.422 0-5.794 1.96-5.794 4.715 0 1.563 1.107 2.756 2.585 3.608 1.193.68 1.62 1.164 1.62 1.874 0 .739-.597 1.335-1.705 1.335-1.65 0-3.21-.852-3.21-.852l-.965 2.784s1.44.965 3.863.965c3.522 0 6.05-1.732 6.05-4.857 0-1.675-1.278-2.868-2.813-3.748zM54.02 27.44c-1.732 0-3.096.823-4.146 2.072l-.057-.028 1.505-7.868h-3.92l-3.806 20.026h3.92l1.306-6.846c.511-2.585 1.846-4.175 3.097-4.175.88 0 1.221.597 1.221 1.45 0 .539-.057 1.192-.17 1.732l-1.477 7.84h3.92l1.534-8.096c.17-.853.285-1.875.285-2.557-.002-2.216-1.166-3.55-3.211-3.55zM66.091 27.44c-4.715 0-7.839 4.26-7.839 9.003 0 3.04 1.874 5.482 5.397 5.482 4.63 0 7.755-4.147 7.755-9.004 0-2.812-1.648-5.482-5.313-5.482zM64.16 38.914c-1.335 0-1.903-1.136-1.903-2.556 0-2.244 1.165-5.908 3.295-5.908 1.392 0 1.845 1.193 1.845 2.357 0 2.414-1.163 6.107-3.237 6.107zM81.43 27.44c-2.645 0-4.147 2.328-4.147 2.328h-.056l.227-2.102H73.99a83.89 83.89 0 0 1-.795 5.199l-2.727 14.344h3.92l1.079-5.795h.086s.804.511 2.3.511c4.602 0 7.613-4.715 7.613-9.487 0-2.641-1.165-4.999-4.034-4.999zM77.682 38.97c-1.017 0-1.62-.568-1.62-.568l.654-3.664c.455-2.442 1.733-4.062 3.097-4.062 1.193 0 1.562 1.108 1.562 2.16 0 2.527-1.506 6.134-3.693 6.134zM85.58 41.641h3.92l2.67-13.889h-3.949zM102.14 27.724h-2.727l.142-.654c.227-1.335 1.023-2.528 2.329-2.528.697 0 1.249.199 1.249.199l.767-3.068s-.681-.34-2.13-.34c-1.392 0-2.783.397-3.835 1.306-1.335 1.136-1.96 2.783-2.272 4.43l-.113.655h-1.819l-.568 2.954h1.819l-2.074 10.964h3.92l2.074-10.964h2.699l.539-2.954zM111.57 27.752s-2.451 6.174-3.551 9.544h-.057c-.075-1.086-.966-9.544-.966-9.544h-4.119l2.359 12.753c.057.284.029.455-.085.654-.456.88-1.222 1.733-2.131 2.358-.739.54-1.562.88-2.215 1.107l1.079 3.324c.795-.17 2.442-.824 3.834-2.13 1.79-1.676 3.437-4.261 5.141-7.784l4.801-10.283h-4.09v.001z" fill="#B9C6CD"/></g></svg>