<svg width="155" height="48" xmlns="http://www.w3.org/2000/svg"><path d="M15.474 40h-.765L2.848 28.596V40H0V23h.765l11.861 11.235V23h2.848v17zm17.346-7.238h-8.63v4.713h10.202v2.483H21.341V23H34.35v2.483H24.147v4.88h8.63v2.4h.043zM43.363 40h-2.849V23h2.849v17zm6.802 0V23h2.848v14.517h9.523V40H50.165zm17.812-17h7.482c4.294 0 6.93 2.062 6.93 5.765 0 3.913-2.848 6.017-7.1 6.017h-4.463v5.26h-2.849V23zm7.355 2.483h-4.506V32.3h4.506c2.551 0 4.166-1.01 4.166-3.409-.042-2.272-1.658-3.408-4.166-3.408zM93.017 23h.553l8.715 17h-3.231l-1.276-2.567h-8.927L87.575 40h-3.188l8.63-17zm.383 5.176h-.17l-3.104 6.648-.17.295h6.675l-.17-.295-3.061-6.648zM103.56 23h14.412v2.483h-5.782V40h-2.848V25.483h-5.782V23zm31.374 9.762h-8.63v4.713h10.203v2.483h-13.009V23h13.009v2.483h-10.203v4.88h8.63v2.4zM142.629 40V23h2.848v14.517H155V40h-12.371z" fill="#B9C6CD" fill-rule="nonzero"/></svg>