<svg width="480" height="327" fill="none" xmlns="http://www.w3.org/2000/svg"><path d="M0 24C0 10.745 10.745 0 24 0h432c13.255 0 24 10.745 24 24v279c0 13.255-10.745 24-24 24H24c-13.255 0-24-10.745-24-24V24z" fill="#fff"/><path fill-rule="evenodd" clip-rule="evenodd" d="M452 72.5H32v-1h420v1zM452 146.5H32v-1h420v1zM452 220.5H32v-1h420v1zM452 294.5H32v-1h420v1z" fill="#E5E7EB"/><path opacity=".25" d="M112.432 152.628 30 91v223.5h420V257l-125.235-93.628a12.002 12.002 0 0 0-14.371 0l-33.113 24.756a12.002 12.002 0 0 1-14.371 0l-84.61-63.256a12.002 12.002 0 0 0-14.371 0l-37.126 27.756a12.002 12.002 0 0 1-14.371 0z" fill="url(#a)"/><g filter="url(#b)"><path fill-rule="evenodd" clip-rule="evenodd" d="M106.744 150.248 29.102 92.201l1.796-2.402 77.642 58.046a18.5 18.5 0 0 0 22.155 0l27.546-20.593a21.5 21.5 0 0 1 25.747 0l75.03 56.093a18.5 18.5 0 0 0 22.155 0l23.58-17.628a21.499 21.499 0 0 1 25.682-.049l117.458 87.127-1.787 2.41-117.458-87.127a18.5 18.5 0 0 0-22.099.041l-23.58 17.629a21.5 21.5 0 0 1-25.747 0l-75.03-56.094a18.501 18.501 0 0 0-22.155.001l-27.546 20.593a21.5 21.5 0 0 1-25.747 0z" fill="#F1043B"/></g><path d="M451.07 259.071 446.999 236l-5.429 13.571L427.999 255l23.071 4.071z" fill="#F1043B"/><path d="M37.525 31.8c.779 0 1.462.15 2.048.448.587.288 1.04.704 1.36 1.248.331.533.496 1.157.496 1.872 0 .747-.197 1.403-.592 1.968a3.18 3.18 0 0 1-1.584 1.2L41.621 43h-2.048l-2.128-4.064H34.95V43h-1.84V31.8h4.416zm-2.576 5.536h2.432c.662 0 1.184-.176 1.568-.528.395-.363.592-.843.592-1.44s-.197-1.072-.592-1.424c-.384-.363-.906-.544-1.568-.544H34.95v3.936zM50.492 41.496V43h-.912c-.533 0-.917-.112-1.152-.336-.234-.224-.352-.55-.352-.976-.618.939-1.52 1.408-2.704 1.408-.917 0-1.653-.213-2.208-.64-.555-.427-.832-1.013-.832-1.76 0-.843.299-1.488.896-1.936.597-.459 1.467-.688 2.608-.688H47.9v-.496c0-.459-.16-.816-.48-1.072-.32-.267-.763-.4-1.328-.4-.501 0-.917.112-1.248.336a1.27 1.27 0 0 0-.576.864h-1.696c.085-.821.448-1.456 1.088-1.904.64-.459 1.478-.688 2.512-.688 1.099 0 1.947.256 2.544.768s.896 1.248.896 2.208v3.232c0 .384.181.576.544.576h.336zM47.9 39.352h-2.144c-.533 0-.944.107-1.232.32-.288.203-.432.507-.432.912 0 .352.133.635.4.848.278.213.65.32 1.12.32.715 0 1.27-.192 1.664-.576.405-.384.613-.896.624-1.536v-.288zM55.753 34.712c.971 0 1.76.299 2.368.896.619.597.928 1.557.928 2.88V43h-1.744v-4.416c0-.779-.165-1.37-.496-1.776-.33-.405-.816-.608-1.456-.608-.682 0-1.221.24-1.616.72-.384.47-.576 1.12-.576 1.952V43h-1.728v-8.192h1.504l.192 1.072c.619-.779 1.494-1.168 2.624-1.168zM60.62 31.8h1.729v7.008l3.744-4h2l-3.056 3.296L68.285 43h-2.048l-2.432-3.632-1.456 1.536V43H60.62V31.8zM70.079 31.528c.298 0 .549.101.752.304a.97.97 0 0 1 .304.736c0 .299-.102.55-.304.752a1.051 1.051 0 0 1-.752.288c-.299 0-.55-.096-.752-.288a1.022 1.022 0 0 1-.304-.752.97.97 0 0 1 .304-.736c.202-.203.453-.304.752-.304zm-.864 3.28h1.728V43h-1.728v-8.192zM76.957 34.712c.97 0 1.76.299 2.368.896.618.597.927 1.557.927 2.88V43H78.51v-4.416c0-.779-.166-1.37-.496-1.776-.331-.405-.817-.608-1.457-.608-.682 0-1.22.24-1.615.72-.385.47-.576 1.12-.576 1.952V43h-1.728v-8.192h1.504l.191 1.072c.62-.779 1.494-1.168 2.625-1.168zM89.776 34.808v7.856c0 1.152-.341 2.043-1.024 2.672-.683.64-1.739.96-3.168.96-1.11 0-2.01-.25-2.704-.752-.693-.49-1.077-1.19-1.152-2.096h1.76c.107.459.352.81.736 1.056.384.256.88.384 1.488.384 1.568 0 2.352-.763 2.352-2.288v-.912c-.597.896-1.488 1.344-2.672 1.344-.747 0-1.413-.165-2-.496a3.582 3.582 0 0 1-1.376-1.44c-.33-.63-.496-1.37-.496-2.224 0-.821.165-1.547.496-2.176a3.663 3.663 0 0 1 1.392-1.456c.587-.352 1.248-.528 1.984-.528.619 0 1.152.123 1.6.368.448.245.81.581 1.088 1.008l.192-1.28h1.504zm-4.096 6.768c.715 0 1.29-.245 1.728-.736.437-.501.656-1.147.656-1.936 0-.81-.219-1.467-.656-1.968-.437-.512-1.013-.768-1.728-.768-.715 0-1.29.25-1.728.752-.437.501-.656 1.152-.656 1.952s.219 1.45.656 1.952c.437.501 1.013.752 1.728.752zM95.734 31.784h1.84v4.72h5.2v-4.72h1.84V43h-1.84v-4.864h-5.2V43h-1.84V31.784zM107.344 31.528c.299 0 .55.101.752.304a.968.968 0 0 1 .304.736c0 .299-.101.55-.304.752a1.05 1.05 0 0 1-.752.288c-.298 0-.549-.096-.752-.288a1.024 1.024 0 0 1-.304-.752c0-.299.102-.544.304-.736.203-.203.454-.304.752-.304zm-.864 3.28h1.728V43h-1.728v-8.192zM111.278 40.296c.032.427.229.779.592 1.056.373.267.853.4 1.44.4.523 0 .944-.096 1.264-.288.331-.203.496-.47.496-.8 0-.277-.075-.485-.224-.624-.149-.139-.352-.235-.608-.288a9.649 9.649 0 0 0-1.152-.192c-.715-.085-1.307-.197-1.776-.336a2.59 2.59 0 0 1-1.12-.688c-.277-.32-.416-.747-.416-1.28 0-.501.139-.944.416-1.328a2.78 2.78 0 0 1 1.168-.912c.501-.213 1.067-.32 1.696-.32 1.035 0 1.872.23 2.512.688.651.459 1.003 1.104 1.056 1.936h-1.68c-.043-.373-.229-.677-.56-.912-.331-.245-.747-.368-1.248-.368s-.907.096-1.216.288c-.309.192-.464.453-.464.784 0 .245.075.432.224.56.16.117.357.203.592.256.235.043.613.096 1.136.16.704.075 1.296.192 1.776.352.48.15.864.395 1.152.736.288.33.432.784.432 1.36 0 .512-.149.965-.448 1.36-.299.384-.709.683-1.232.896-.523.203-1.109.304-1.76.304-1.099 0-1.989-.245-2.672-.736-.672-.501-1.019-1.19-1.04-2.064h1.664zM118.696 36.328h-1.424v-1.52h1.424V32.52h1.744v2.288h1.968v1.52h-1.968V40.6c0 .32.064.55.192.688.128.128.346.192.656.192h1.312V43h-1.664c-.779 0-1.35-.181-1.712-.544-.352-.363-.528-.923-.528-1.68v-4.448zM127.227 43.096c-.821 0-1.552-.17-2.192-.512a3.759 3.759 0 0 1-1.472-1.472c-.341-.64-.512-1.376-.512-2.208 0-.821.171-1.547.512-2.176a3.73 3.73 0 0 1 1.472-1.488c.64-.352 1.371-.528 2.192-.528.822 0 1.547.176 2.176.528.64.352 1.131.848 1.472 1.488.352.63.528 1.355.528 2.176 0 .832-.176 1.568-.528 2.208a3.621 3.621 0 0 1-1.472 1.472c-.629.341-1.354.512-2.176.512zm0-1.472c.726 0 1.307-.25 1.744-.752.448-.512.672-1.168.672-1.968s-.224-1.45-.672-1.952c-.437-.512-1.018-.768-1.744-.768-.725 0-1.306.256-1.744.768-.437.501-.656 1.152-.656 1.952s.219 1.456.656 1.968c.438.501 1.019.752 1.744.752zM137.321 34.808v1.616h-.768c-.715 0-1.232.235-1.552.704-.32.459-.48 1.045-.48 1.76V43h-1.728v-8.192h1.536l.192 1.232c.234-.384.538-.683.912-.896.373-.224.874-.336 1.504-.336h.384zM139.535 34.808l2.289 6.32 2.224-6.32h1.839l-3.712 9.472c-.192.49-.368.864-.528 1.12-.16.267-.357.464-.592.592-.234.139-.549.208-.944.208h-1.855v-1.52h1.215c.331 0 .561-.053.689-.16.127-.096.261-.32.4-.672l.336-.784-3.201-8.256h1.84z" fill="#15394F"/><defs><linearGradient id="a" x1="240" y1="91" x2="240" y2="314.5" gradientUnits="userSpaceOnUse"><stop stop-color="#F1043B"/><stop offset="1" stop-color="#F1043B" stop-opacity="0"/></linearGradient><filter id="b" x="17.102" y="89.799" width="442.792" height="197.406" filterUnits="userSpaceOnUse" color-interpolation-filters="sRGB"><feFlood flood-opacity="0" result="BackgroundImageFix"/><feColorMatrix in="SourceAlpha" values="0 0 0 0 0 0 0 0 0 0 0 0 0 0 0 0 0 0 127 0"/><feOffset dy="20"/><feGaussianBlur stdDeviation="6"/><feColorMatrix values="0 0 0 0 0.616667 0 0 0 0 0.0179861 0 0 0 0 0.15692 0 0 0 0.15 0"/><feBlend in2="BackgroundImageFix" result="effect1_dropShadow"/><feBlend in="SourceGraphic" in2="effect1_dropShadow" result="shape"/></filter></defs></svg>