<svg width="519" height="519" fill="none" xmlns="http://www.w3.org/2000/svg"><g filter="url(#a)"><path d="M88.98 10.573A6.573 6.573 0 0 1 95.554 4h347.834a6.573 6.573 0 0 1 6.572 6.573v487.475a6.572 6.572 0 0 1-6.572 6.573H95.553a6.573 6.573 0 0 1-6.572-6.573V10.573z" fill="#F8F8FA"/></g><path d="M123.178 78.387c0-1.21.981-2.191 2.191-2.191h206.505c1.21 0 2.191.98 2.191 2.19v7.018c0 1.21-.981 2.191-2.191 2.191H125.369a2.19 2.19 0 0 1-2.191-2.19v-7.018z" fill="url(#b)"/><path d="M123.178 115.434c0-1.21.981-2.191 2.191-2.191h262.552c1.21 0 2.191.981 2.191 2.191v1.318c0 1.21-.981 2.191-2.191 2.191H125.369a2.191 2.191 0 0 1-2.191-2.191v-1.318zM123.178 126.834c0-1.21.981-2.191 2.191-2.191h97.262c1.21 0 2.191.981 2.191 2.191v1.318c0 1.21-.981 2.191-2.191 2.191h-97.262a2.191 2.191 0 0 1-2.191-2.191v-1.318z" fill="#D6D6DF"/><path d="M123.178 94.535c0-1.21.981-2.19 2.191-2.19h125.76c1.21 0 2.191.98 2.191 2.19v7.018c0 1.21-.981 2.191-2.191 2.191h-125.76a2.191 2.191 0 0 1-2.191-2.191v-7.018z" fill="url(#c)"/><path d="M123.178 163.881c0-1.21.981-2.191 2.191-2.191h206.505c1.21 0 2.191.981 2.191 2.191v7.018c0 1.21-.981 2.191-2.191 2.191H125.369a2.191 2.191 0 0 1-2.191-2.191v-7.018z" fill="url(#d)"/><path d="M123.178 200.93c0-1.21.981-2.19 2.191-2.19h262.552c1.21 0 2.191.98 2.191 2.19v1.318c0 1.21-.981 2.191-2.191 2.191H125.369a2.191 2.191 0 0 1-2.191-2.191v-1.318zM123.178 212.329c0-1.21.981-2.191 2.191-2.191h97.262c1.21 0 2.191.981 2.191 2.191v1.318c0 1.21-.981 2.191-2.191 2.191h-97.262a2.191 2.191 0 0 1-2.191-2.191v-1.318z" fill="#D6D6DF"/><path d="M123.178 180.032c0-1.21.981-2.191 2.191-2.191h125.76c1.21 0 2.191.981 2.191 2.191v7.017c0 1.21-.981 2.191-2.191 2.191h-125.76a2.191 2.191 0 0 1-2.191-2.191v-7.017z" fill="url(#e)"/><path d="M123.178 249.377c0-1.21.981-2.191 2.191-2.191h206.505c1.21 0 2.191.981 2.191 2.191v7.017c0 1.21-.981 2.191-2.191 2.191H125.369a2.191 2.191 0 0 1-2.191-2.191v-7.017z" fill="url(#f)"/><path d="M123.178 286.425c0-1.21.981-2.191 2.191-2.191h262.552c1.21 0 2.191.981 2.191 2.191v1.318c0 1.21-.981 2.191-2.191 2.191H125.369a2.191 2.191 0 0 1-2.191-2.191v-1.318zM123.178 297.824c0-1.21.981-2.191 2.191-2.191h97.262c1.21 0 2.191.981 2.191 2.191v1.318c0 1.21-.981 2.191-2.191 2.191h-97.262a2.191 2.191 0 0 1-2.191-2.191v-1.318z" fill="#D6D6DF"/><path d="M123.178 265.526c0-1.21.981-2.191 2.191-2.191h125.76c1.21 0 2.191.981 2.191 2.191v7.018c0 1.21-.981 2.191-2.191 2.191h-125.76a2.191 2.191 0 0 1-2.191-2.191v-7.018z" fill="url(#g)"/><path d="M123.178 334.871c0-1.21.981-2.191 2.191-2.191h206.505c1.21 0 2.191.981 2.191 2.191v7.018c0 1.21-.981 2.191-2.191 2.191H125.369a2.191 2.191 0 0 1-2.191-2.191v-7.018z" fill="url(#h)"/><path d="M123.178 371.918c0-1.21.981-2.191 2.191-2.191h262.552c1.21 0 2.191.981 2.191 2.191v1.318c0 1.21-.981 2.191-2.191 2.191H125.369a2.191 2.191 0 0 1-2.191-2.191v-1.318zM123.178 383.319c0-1.21.981-2.191 2.191-2.191h97.262c1.21 0 2.191.981 2.191 2.191v1.318c0 1.21-.981 2.191-2.191 2.191h-97.262a2.191 2.191 0 0 1-2.191-2.191v-1.318z" fill="#D6D6DF"/><path d="M123.178 351.02c0-1.21.981-2.191 2.191-2.191h125.76c1.21 0 2.191.981 2.191 2.191v7.017c0 1.21-.981 2.191-2.191 2.191h-125.76a2.191 2.191 0 0 1-2.191-2.191v-7.017z" fill="url(#i)"/><g filter="url(#j)"><path d="M123.178 417.516c0-1.21.981-2.191 2.191-2.191h206.505c1.21 0 2.191.981 2.191 2.191v7.017c0 1.21-.981 2.191-2.191 2.191H125.369a2.19 2.19 0 0 1-2.191-2.19v-7.018z" fill="#D6D6DF"/></g><g filter="url(#k)"><path d="M123.178 454.564c0-1.21.981-2.191 2.191-2.191h262.552c1.21 0 2.191.981 2.191 2.191v1.318c0 1.21-.981 2.191-2.191 2.191H125.369a2.191 2.191 0 0 1-2.191-2.191v-1.318z" fill="#D6D6DF"/></g><g filter="url(#l)"><path d="M123.178 465.964c0-1.21.981-2.19 2.191-2.19h97.262c1.21 0 2.191.98 2.191 2.19v1.318c0 1.21-.981 2.191-2.191 2.191h-97.262a2.191 2.191 0 0 1-2.191-2.191v-1.318z" fill="#D6D6DF"/></g><g filter="url(#m)"><path d="M123.178 433.665c0-1.21.981-2.19 2.191-2.19h125.76c1.21 0 2.191.98 2.191 2.19v7.018c0 1.21-.981 2.191-2.191 2.191h-125.76a2.191 2.191 0 0 1-2.191-2.191v-7.018z" fill="#D6D6DF"/></g><g filter="url(#n)"><path d="M60.482 244.609a6.573 6.573 0 0 1 6.573-6.573h404.83a6.573 6.573 0 0 1 6.573 6.573v87.698a6.573 6.573 0 0 1-6.573 6.573H67.055a6.573 6.573 0 0 1-6.573-6.573v-87.698z" fill="#fff"/></g><path d="M106 294.191c0-1.21.981-2.191 2.191-2.191h262.552c1.21 0 2.191.981 2.191 2.191v1.318c0 1.21-.981 2.191-2.191 2.191H108.191a2.191 2.191 0 0 1-2.191-2.191v-1.318zM106 305.589c0-1.21.981-2.191 2.191-2.191h97.262c1.21 0 2.191.981 2.191 2.191v1.318c0 1.21-.981 2.191-2.191 2.191h-97.262a2.191 2.191 0 0 1-2.191-2.191v-1.318z" fill="#D6D6DF"/><path d="M109.443 79.483v7.668h-1.577v-4.897a1.218 1.218 0 0 1-.416.055h-1.282v-1.304h1.15c.19 0 .332-.073.427-.219a.979.979 0 0 0 .154-.558v-.745h1.544zM109.323 169.019c.372-.299.646-.573.821-.821.175-.249.263-.519.263-.811 0-.372-.113-.657-.34-.854-.219-.205-.514-.307-.887-.307-.358 0-.65.12-.876.361-.219.241-.329.566-.329.975v.121h-1.588v-.208c0-.482.113-.921.339-1.315.234-.394.563-.701.986-.92.424-.226.913-.34 1.468-.34.898 0 1.592.219 2.081.658.497.438.745 1.026.745 1.763 0 .526-.131.983-.394 1.37-.256.379-.654.788-1.194 1.226l-1.72 1.403h3.341v1.325h-5.619v-1.216l2.903-2.41zM109.76 421.055c.482 0 .916.113 1.303.339.395.219.701.53.921.931.226.395.339.848.339 1.359 0 .569-.131 1.055-.394 1.457a2.454 2.454 0 0 1-1.041.898 3.435 3.435 0 0 1-1.468.307c-.577 0-1.084-.11-1.522-.329a2.564 2.564 0 0 1-1.019-.909 2.635 2.635 0 0 1-.395-1.293h1.567c.044.358.19.654.438.888.256.233.566.35.931.35.358 0 .665-.117.92-.35.263-.241.395-.581.395-1.019 0-.402-.121-.731-.362-.986-.241-.263-.558-.395-.953-.395-.263 0-.518.063-.767.187-.248.117-.423.321-.525.613h-1.523l.219-4.491h5.028v1.325h-3.593l-.088 1.709c.417-.394.946-.591 1.589-.591z" fill="#176BFA"/><path fill-rule="evenodd" clip-rule="evenodd" d="M434.4 403.122H104.616a5.477 5.477 0 0 0-5.478 5.477v68.55a5.477 5.477 0 0 0 5.478 5.477H434.4a5.477 5.477 0 0 0 5.477-5.477v-68.55a5.477 5.477 0 0 0-5.477-5.477zm-329.784-1.096a6.573 6.573 0 0 0-6.573 6.573v68.55a6.573 6.573 0 0 0 6.573 6.573H434.4a6.573 6.573 0 0 0 6.573-6.573v-68.55a6.573 6.573 0 0 0-6.573-6.573H104.616z" fill="#E8E8F0"/><path fill-rule="evenodd" clip-rule="evenodd" d="m51.478 102.539-25.674 5.896.245 1.067 23.966-5.503-6.533 28.119 1.067.248 6.93-29.827z" fill="#3C85DC"/><path fill-rule="evenodd" clip-rule="evenodd" d="M.879 322.599C5.42 396.718 27.606 468.848 68.219 519l.781-.943C28.613 468.184 6.502 396.382 1.974 322.499c-4.527-73.883 8.533-149.772 38.413-207.785l-.93-.714C9.432 172.295-3.663 248.479.88 322.599z" fill="#3C85DC"/><path d="M102.178 27.273c0-.471.068-.942.236-1.38l-2.49-1.917a7.315 7.315 0 0 0-.774 3.297c0 1.178.27 2.288.774 3.263l2.49-1.917c-.168-.404-.236-.875-.236-1.346z" fill="#FBBC05"/><path d="m99.926 24.01 2.489 1.918c.572-1.783 2.187-3.028 4.139-3.028 1.043 0 1.985.37 2.725.976l2.153-2.153c-1.312-1.144-2.994-1.85-4.878-1.85a7.324 7.324 0 0 0-6.628 4.137z" fill="#EA4335"/><path d="M106.554 25.929v2.86h3.97c-.37 1.816-1.918 2.86-3.97 2.86a4.324 4.324 0 0 1-4.139-2.995l-2.49 1.918c1.178 2.422 3.702 4.104 6.629 4.104 3.7 0 7.065-2.691 7.065-7.401 0-.438-.067-.909-.168-1.346h-6.897z" fill="#34A853"/><path d="M106.553 25.929v2.86h3.97a3.4 3.4 0 0 1-1.514 2.22l2.355 1.817c1.346-1.279 2.254-3.129 2.254-5.551 0-.438-.067-.909-.168-1.346h-6.897z" fill="#4285F4"/><g filter="url(#o)"><path d="M123.178 23.582a4.382 4.382 0 0 1 4.382-4.382h299.968a4.382 4.382 0 0 1 4.382 4.382v6.435a4.382 4.382 0 0 1-4.382 4.382H127.56a4.382 4.382 0 0 1-4.382-4.382v-6.435z" fill="#fff"/></g><path d="M106.84 266.214h2.1v4.396l3.92-4.396h2.548l-3.598 4.032 3.836 5.754h-2.52l-2.8-4.13-1.386 1.554V276h-2.1v-9.786zM116.396 266.2h6.58v1.806h-4.48v2.198h3.64v1.722h-3.64v2.268h4.634V276h-6.734v-9.8zM123.39 266.2h2.45l2.198 4.018 2.31-4.018h2.338l-3.598 6.16V276h-2.1v-3.64l-3.598-6.16zM132.813 266.2l2.17-.014 1.806 7.168 1.918-7.154h1.89l1.862 7.154 1.848-7.154h2.128l-2.716 9.8h-2.422l-1.694-6.51-1.652 6.51h-2.422l-2.716-9.8zM156.345 271.1c0 .943-.205 1.797-.616 2.562a4.497 4.497 0 0 1-1.722 1.778c-.737.429-1.577.644-2.52.644-.942 0-1.782-.215-2.52-.644a4.51 4.51 0 0 1-1.722-1.778c-.41-.765-.616-1.619-.616-2.562 0-.943.206-1.792.616-2.548a4.488 4.488 0 0 1 1.722-1.792c.738-.429 1.578-.644 2.52-.644.943 0 1.783.215 2.52.644a4.475 4.475 0 0 1 1.722 1.792c.411.756.616 1.605.616 2.548zm-7.574 0c0 .616.112 1.167.336 1.652.224.485.542.868.952 1.148.411.271.887.406 1.428.406.532 0 1.004-.135 1.414-.406.411-.28.728-.663.952-1.148.224-.485.336-1.036.336-1.652 0-.616-.112-1.167-.336-1.652a2.654 2.654 0 0 0-.952-1.134c-.41-.28-.882-.42-1.414-.42-.541 0-1.017.14-1.428.42a2.66 2.66 0 0 0-.952 1.134c-.224.485-.336 1.036-.336 1.652zM161.607 266.2c.71 0 1.335.135 1.876.406a2.89 2.89 0 0 1 1.274 1.134c.299.495.448 1.069.448 1.722 0 .625-.149 1.181-.448 1.666a2.91 2.91 0 0 1-1.232 1.092l1.932 3.78h-2.324l-1.638-3.29h-1.778V276h-2.1v-9.8h3.99zm-1.89 4.76h1.722c.495 0 .887-.135 1.176-.406.299-.271.448-.635.448-1.092 0-.467-.149-.835-.448-1.106-.289-.271-.681-.406-1.176-.406h-1.722v3.01zM166.6 266.2h3.402c.98 0 1.843.21 2.59.63a4.21 4.21 0 0 1 1.736 1.736c.41.737.616 1.582.616 2.534 0 .952-.206 1.801-.616 2.548a4.323 4.323 0 0 1-1.736 1.736c-.747.411-1.61.616-2.59.616H166.6v-9.8zm3.402 8.05c.886 0 1.572-.285 2.058-.854.494-.579.742-1.344.742-2.296 0-.952-.248-1.713-.742-2.282-.486-.579-1.172-.868-2.058-.868H168.7v6.3h1.302zM175.261 274.922c0-.345.112-.625.336-.84.224-.224.508-.336.854-.336.336 0 .616.112.84.336.233.224.35.504.35.84 0 .336-.117.616-.35.84a1.165 1.165 0 0 1-.84.322c-.346 0-.63-.107-.854-.322a1.14 1.14 0 0 1-.336-.84zM177.952 271.1c0-.999.191-1.871.574-2.618a4.188 4.188 0 0 1 1.666-1.75c.728-.411 1.582-.616 2.562-.616.765 0 1.451.149 2.058.448a3.796 3.796 0 0 1 1.47 1.26c.373.541.597 1.167.672 1.876h-2.1c-.122-.56-.378-.999-.77-1.316-.383-.327-.864-.49-1.442-.49-.784 0-1.405.294-1.862.882-.458.588-.686 1.363-.686 2.324 0 .952.228 1.727.686 2.324.457.588 1.078.882 1.862.882.578 0 1.059-.159 1.442-.476.392-.327.648-.77.77-1.33h2.1a3.987 3.987 0 0 1-.672 1.876 3.796 3.796 0 0 1-1.47 1.26c-.607.299-1.293.448-2.058.448-.98 0-1.834-.205-2.562-.616a4.206 4.206 0 0 1-1.666-1.736c-.383-.756-.574-1.633-.574-2.632zM197.402 271.1c0 .943-.205 1.797-.616 2.562a4.51 4.51 0 0 1-1.722 1.778c-.737.429-1.577.644-2.52.644-.943 0-1.783-.215-2.52-.644a4.51 4.51 0 0 1-1.722-1.778c-.411-.765-.616-1.619-.616-2.562 0-.943.205-1.792.616-2.548a4.488 4.488 0 0 1 1.722-1.792c.737-.429 1.577-.644 2.52-.644.943 0 1.783.215 2.52.644a4.488 4.488 0 0 1 1.722 1.792c.411.756.616 1.605.616 2.548zm-7.574 0c0 .616.112 1.167.336 1.652.224.485.541.868.952 1.148.411.271.887.406 1.428.406.532 0 1.003-.135 1.414-.406.411-.28.728-.663.952-1.148.224-.485.336-1.036.336-1.652 0-.616-.112-1.167-.336-1.652a2.654 2.654 0 0 0-.952-1.134 2.45 2.45 0 0 0-1.414-.42c-.541 0-1.017.14-1.428.42a2.654 2.654 0 0 0-.952 1.134c-.224.485-.336 1.036-.336 1.652zM198.674 266.2h2.758l2.716 7.196 2.632-7.196h2.702v9.8h-2.002v-6.566L204.932 276h-1.708l-2.548-6.566V276h-2.002v-9.8zM214.349 272.822v-1.596h4.9v1.596h-4.9zM224.117 266.214h2.1v4.396l3.92-4.396h2.548l-3.598 4.032 3.836 5.754h-2.52l-2.8-4.13-1.386 1.554V276h-2.1v-9.786zM233.674 266.2h6.58v1.806h-4.48v2.198h3.64v1.722h-3.64v2.268h4.634V276h-6.734v-9.8zM240.668 266.2h2.45l2.198 4.018 2.31-4.018h2.338l-3.598 6.16V276h-2.1v-3.64l-3.598-6.16zM250.091 266.2l2.17-.014 1.806 7.168 1.918-7.154h1.89l1.862 7.154 1.848-7.154h2.128l-2.716 9.8h-2.422l-1.694-6.51-1.652 6.51h-2.422l-2.716-9.8zM273.623 271.1c0 .943-.206 1.797-.616 2.562a4.51 4.51 0 0 1-1.722 1.778c-.737.429-1.577.644-2.52.644-.943 0-1.783-.215-2.52-.644a4.497 4.497 0 0 1-1.722-1.778c-.411-.765-.616-1.619-.616-2.562 0-.943.205-1.792.616-2.548a4.475 4.475 0 0 1 1.722-1.792c.737-.429 1.577-.644 2.52-.644.943 0 1.783.215 2.52.644a4.488 4.488 0 0 1 1.722 1.792c.41.756.616 1.605.616 2.548zm-7.574 0c0 .616.112 1.167.336 1.652.224.485.541.868.952 1.148.41.271.886.406 1.428.406.532 0 1.003-.135 1.414-.406.41-.28.728-.663.952-1.148.224-.485.336-1.036.336-1.652 0-.616-.112-1.167-.336-1.652a2.66 2.66 0 0 0-.952-1.134 2.45 2.45 0 0 0-1.414-.42c-.542 0-1.018.14-1.428.42a2.654 2.654 0 0 0-.952 1.134c-.224.485-.336 1.036-.336 1.652zM278.885 266.2c.709 0 1.334.135 1.876.406.55.261.975.639 1.274 1.134.298.495.448 1.069.448 1.722 0 .625-.15 1.181-.448 1.666-.299.476-.71.84-1.232 1.092l1.932 3.78h-2.324l-1.638-3.29h-1.778V276h-2.1v-9.8h3.99zm-1.89 4.76h1.722c.494 0 .886-.135 1.176-.406.298-.271.448-.635.448-1.092 0-.467-.15-.835-.448-1.106-.29-.271-.682-.406-1.176-.406h-1.722v3.01zM283.877 266.2h3.402c.98 0 1.843.21 2.59.63a4.203 4.203 0 0 1 1.736 1.736c.411.737.616 1.582.616 2.534 0 .952-.205 1.801-.616 2.548a4.317 4.317 0 0 1-1.736 1.736c-.747.411-1.61.616-2.59.616h-3.402v-9.8zm3.402 8.05c.887 0 1.573-.285 2.058-.854.495-.579.742-1.344.742-2.296 0-.952-.247-1.713-.742-2.282-.485-.579-1.171-.868-2.058-.868h-1.302v6.3h1.302zM296.456 266.2h7.756v1.806h-2.828V276h-2.1v-7.994h-2.828V266.2zM309.345 266.2c.71 0 1.335.135 1.876.406a2.89 2.89 0 0 1 1.274 1.134c.299.495.448 1.069.448 1.722 0 .625-.149 1.181-.448 1.666a2.91 2.91 0 0 1-1.232 1.092l1.932 3.78h-2.324l-1.638-3.29h-1.778V276h-2.1v-9.8h3.99zm-1.89 4.76h1.722c.495 0 .887-.135 1.176-.406.299-.271.448-.635.448-1.092 0-.467-.149-.835-.448-1.106-.289-.271-.681-.406-1.176-.406h-1.722v3.01zM313.486 276l3.584-9.8h2.52l3.556 9.8h-2.254l-.756-2.142h-3.724l-.756 2.142h-2.17zm3.486-3.836h2.59l-1.302-3.724-1.288 3.724zM323.229 271.1c0-.999.191-1.871.574-2.618a4.188 4.188 0 0 1 1.666-1.75c.728-.411 1.582-.616 2.562-.616.765 0 1.451.149 2.058.448a3.781 3.781 0 0 1 1.47 1.26c.373.541.597 1.167.672 1.876h-2.1c-.121-.56-.378-.999-.77-1.316-.383-.327-.863-.49-1.442-.49-.784 0-1.405.294-1.862.882-.457.588-.686 1.363-.686 2.324 0 .952.229 1.727.686 2.324.457.588 1.078.882 1.862.882.579 0 1.059-.159 1.442-.476.392-.327.649-.77.77-1.33h2.1a3.987 3.987 0 0 1-.672 1.876 3.781 3.781 0 0 1-1.47 1.26c-.607.299-1.293.448-2.058.448-.98 0-1.834-.205-2.562-.616a4.206 4.206 0 0 1-1.666-1.736c-.383-.756-.574-1.633-.574-2.632zM333.451 266.214h2.1v4.396l3.92-4.396h2.548l-3.598 4.032 3.836 5.754h-2.52l-2.8-4.13-1.386 1.554V276h-2.1v-9.786zM343.008 266.2h2.1v9.8h-2.1v-9.8zM346.768 276v-9.8h1.904l4.158 6.174V266.2h2.072v9.8h-1.918l-4.158-6.174V276h-2.058zM356.178 271.1c0-.999.196-1.871.588-2.618a4.166 4.166 0 0 1 1.68-1.75c.738-.411 1.601-.616 2.59-.616.775 0 1.47.149 2.086.448a3.76 3.76 0 0 1 1.484 1.26 3.99 3.99 0 0 1 .7 1.862h-2.072c-.13-.551-.392-.985-.784-1.302-.392-.327-.882-.49-1.47-.49-.541 0-1.012.135-1.414.406a2.604 2.604 0 0 0-.924 1.134c-.214.485-.322 1.041-.322 1.666 0 .961.234 1.736.7 2.324.476.588 1.13.882 1.96.882.607 0 1.144-.163 1.61-.49.467-.336.747-.826.84-1.47v-.126h-2.436v-1.666h4.382V276h-1.456l-.224-1.218a3.235 3.235 0 0 1-1.162.938c-.485.243-1.05.364-1.694.364-.924 0-1.74-.205-2.45-.616a4.243 4.243 0 0 1-1.638-1.75c-.382-.756-.574-1.629-.574-2.618zM369.997 266.2h7.756v1.806h-2.828V276h-2.1v-7.994h-2.828V266.2zM387.551 271.1c0 .943-.206 1.797-.616 2.562a4.51 4.51 0 0 1-1.722 1.778c-.738.429-1.578.644-2.52.644-.943 0-1.783-.215-2.52-.644a4.497 4.497 0 0 1-1.722-1.778c-.411-.765-.616-1.619-.616-2.562 0-.943.205-1.792.616-2.548a4.475 4.475 0 0 1 1.722-1.792c.737-.429 1.577-.644 2.52-.644.942 0 1.782.215 2.52.644a4.488 4.488 0 0 1 1.722 1.792c.41.756.616 1.605.616 2.548zm-7.574 0c0 .616.112 1.167.336 1.652.224.485.541.868.952 1.148.41.271.886.406 1.428.406.532 0 1.003-.135 1.414-.406.41-.28.728-.663.952-1.148.224-.485.336-1.036.336-1.652 0-.616-.112-1.167-.336-1.652a2.66 2.66 0 0 0-.952-1.134 2.45 2.45 0 0 0-1.414-.42c-.542 0-1.018.14-1.428.42a2.654 2.654 0 0 0-.952 1.134c-.224.485-.336 1.036-.336 1.652zM398.146 271.1c0 .943-.205 1.797-.616 2.562a4.497 4.497 0 0 1-1.722 1.778c-.737.429-1.577.644-2.52.644-.942 0-1.782-.215-2.52-.644a4.51 4.51 0 0 1-1.722-1.778c-.41-.765-.616-1.619-.616-2.562 0-.943.206-1.792.616-2.548a4.488 4.488 0 0 1 1.722-1.792c.738-.429 1.578-.644 2.52-.644.943 0 1.783.215 2.52.644a4.475 4.475 0 0 1 1.722 1.792c.411.756.616 1.605.616 2.548zm-7.574 0c0 .616.112 1.167.336 1.652.224.485.542.868.952 1.148.411.271.887.406 1.428.406.532 0 1.004-.135 1.414-.406.411-.28.728-.663.952-1.148.224-.485.336-1.036.336-1.652 0-.616-.112-1.167-.336-1.652a2.654 2.654 0 0 0-.952-1.134c-.41-.28-.882-.42-1.414-.42-.541 0-1.017.14-1.428.42a2.66 2.66 0 0 0-.952 1.134c-.224.485-.336 1.036-.336 1.652zM399.418 276v-9.8h2.1v7.994h3.892V276h-5.992z" fill="#176BFA"/><path d="M125.078 43.238c0-1.21.981-2.19 2.191-2.19h26.966c1.21 0 2.191.98 2.191 2.19v.368c0 1.21-.981 2.19-2.191 2.19h-26.966c-1.21 0-2.191-.98-2.191-2.19v-.368z" fill="#D6D6DF"/><path d="M129.828 27.09c0-1.21.981-2.191 2.191-2.191h83.013c1.21 0 2.191.98 2.191 2.19v.368c0 1.21-.981 2.191-2.191 2.191h-83.013c-1.21 0-2.191-.98-2.191-2.19v-.368z" fill="#8F8F99"/><path d="M161.176 43.238c0-1.21.981-2.19 2.191-2.19h26.966c1.21 0 2.191.98 2.191 2.19v.368c0 1.21-.981 2.19-2.191 2.19h-26.966c-1.21 0-2.191-.98-2.191-2.19v-.368zM197.273 43.238c0-1.21.981-2.19 2.191-2.19h26.967c1.21 0 2.191.98 2.191 2.19v.368c0 1.21-.981 2.19-2.191 2.19h-26.967c-1.21 0-2.191-.98-2.191-2.19v-.368zM233.373 43.238c0-1.21.981-2.19 2.191-2.19h26.966c1.21 0 2.191.98 2.191 2.19v.368c0 1.21-.981 2.19-2.191 2.19h-26.966c-1.21 0-2.191-.98-2.191-2.19v-.368zM269.471 43.238c0-1.21.981-2.19 2.191-2.19h26.966c1.21 0 2.191.98 2.191 2.19v.368c0 1.21-.981 2.19-2.191 2.19h-26.966c-1.21 0-2.191-.98-2.191-2.19v-.368zM400.561 43.238c0-1.21.98-2.19 2.19-2.19h26.967c1.21 0 2.191.98 2.191 2.19v.368c0 1.21-.981 2.19-2.191 2.19h-26.967a2.19 2.19 0 0 1-2.19-2.19v-.368zM364.465 43.238c0-1.21.981-2.19 2.191-2.19h26.966c1.21 0 2.191.98 2.191 2.19v.368c0 1.21-.981 2.19-2.191 2.19h-26.966c-1.21 0-2.191-.98-2.191-2.19v-.368z" fill="#D6D6DF"/><path d="M80.43 263.685h5.7v15.199h-5.7v-15.199z" fill="url(#p)"/><defs><linearGradient id="b" x1="228.622" y1="76.196" x2="228.622" y2="87.595" gradientUnits="userSpaceOnUse"><stop stop-color="#599FF2"/><stop offset="1" stop-color="#176BFA"/></linearGradient><linearGradient id="c" x1="188.249" y1="92.344" x2="188.249" y2="103.744" gradientUnits="userSpaceOnUse"><stop stop-color="#A7E498"/><stop offset="1" stop-color="#9CD88E"/></linearGradient><linearGradient id="d" x1="228.622" y1="161.69" x2="228.622" y2="173.09" gradientUnits="userSpaceOnUse"><stop stop-color="#599FF2"/><stop offset="1" stop-color="#176BFA"/></linearGradient><linearGradient id="e" x1="188.249" y1="177.841" x2="188.249" y2="189.24" gradientUnits="userSpaceOnUse"><stop stop-color="#A7E498"/><stop offset="1" stop-color="#9CD88E"/></linearGradient><linearGradient id="f" x1="228.622" y1="247.186" x2="228.622" y2="258.585" gradientUnits="userSpaceOnUse"><stop stop-color="#599FF2"/><stop offset="1" stop-color="#3D86DD"/></linearGradient><linearGradient id="g" x1="188.249" y1="263.335" x2="188.249" y2="274.735" gradientUnits="userSpaceOnUse"><stop stop-color="#A7E498"/><stop offset="1" stop-color="#9CD88E"/></linearGradient><linearGradient id="h" x1="228.622" y1="332.68" x2="228.622" y2="344.08" gradientUnits="userSpaceOnUse"><stop stop-color="#599FF2"/><stop offset="1" stop-color="#3D86DD"/></linearGradient><linearGradient id="i" x1="188.249" y1="348.829" x2="188.249" y2="360.228" gradientUnits="userSpaceOnUse"><stop stop-color="#A7E498"/><stop offset="1" stop-color="#9CD88E"/></linearGradient><linearGradient id="p" x1="83.279" y1="263.685" x2="83.279" y2="278.884" gradientUnits="userSpaceOnUse"><stop stop-color="#176BFA" stop-opacity="0"/><stop offset=".505" stop-color="#176BFA"/><stop offset="1" stop-color="#176BFA" stop-opacity="0"/></linearGradient><filter id="a" x="80.981" y="0" width="376.979" height="516.621" filterUnits="userSpaceOnUse" color-interpolation-filters="sRGB"><feFlood flood-opacity="0" result="BackgroundImageFix"/><feColorMatrix in="SourceAlpha" values="0 0 0 0 0 0 0 0 0 0 0 0 0 0 0 0 0 0 127 0" result="hardAlpha"/><feOffset dy="4"/><feGaussianBlur stdDeviation="4"/><feColorMatrix values="0 0 0 0 0.137517 0 0 0 0 0.216845 0 0 0 0 0.370833 0 0 0 0.15 0"/><feBlend in2="BackgroundImageFix" result="effect1_dropShadow"/><feBlend in="SourceGraphic" in2="effect1_dropShadow" result="shape"/></filter><filter id="j" x="123.178" y="415.325" width="210.888" height="12.399" filterUnits="userSpaceOnUse" color-interpolation-filters="sRGB"><feFlood flood-opacity="0" result="BackgroundImageFix"/><feBlend in="SourceGraphic" in2="BackgroundImageFix" result="shape"/><feColorMatrix in="SourceAlpha" values="0 0 0 0 0 0 0 0 0 0 0 0 0 0 0 0 0 0 127 0" result="hardAlpha"/><feOffset dy="2"/><feGaussianBlur stdDeviation=".5"/><feComposite in2="hardAlpha" operator="arithmetic" k2="-1" k3="1"/><feColorMatrix values="0 0 0 0 0 0 0 0 0 0 0 0 0 0 0 0 0 0 0.1 0"/><feBlend in2="shape" result="effect1_innerShadow"/></filter><filter id="k" x="123.178" y="452.373" width="266.934" height="6.7" filterUnits="userSpaceOnUse" color-interpolation-filters="sRGB"><feFlood flood-opacity="0" result="BackgroundImageFix"/><feBlend in="SourceGraphic" in2="BackgroundImageFix" result="shape"/><feColorMatrix in="SourceAlpha" values="0 0 0 0 0 0 0 0 0 0 0 0 0 0 0 0 0 0 127 0" result="hardAlpha"/><feOffset dy="2"/><feGaussianBlur stdDeviation=".5"/><feComposite in2="hardAlpha" operator="arithmetic" k2="-1" k3="1"/><feColorMatrix values="0 0 0 0 0 0 0 0 0 0 0 0 0 0 0 0 0 0 0.1 0"/><feBlend in2="shape" result="effect1_innerShadow"/></filter><filter id="l" x="123.178" y="463.774" width="101.644" height="6.7" filterUnits="userSpaceOnUse" color-interpolation-filters="sRGB"><feFlood flood-opacity="0" result="BackgroundImageFix"/><feBlend in="SourceGraphic" in2="BackgroundImageFix" result="shape"/><feColorMatrix in="SourceAlpha" values="0 0 0 0 0 0 0 0 0 0 0 0 0 0 0 0 0 0 127 0" result="hardAlpha"/><feOffset dy="2"/><feGaussianBlur stdDeviation=".5"/><feComposite in2="hardAlpha" operator="arithmetic" k2="-1" k3="1"/><feColorMatrix values="0 0 0 0 0 0 0 0 0 0 0 0 0 0 0 0 0 0 0.1 0"/><feBlend in2="shape" result="effect1_innerShadow"/></filter><filter id="m" x="123.178" y="431.475" width="130.142" height="12.399" filterUnits="userSpaceOnUse" color-interpolation-filters="sRGB"><feFlood flood-opacity="0" result="BackgroundImageFix"/><feBlend in="SourceGraphic" in2="BackgroundImageFix" result="shape"/><feColorMatrix in="SourceAlpha" values="0 0 0 0 0 0 0 0 0 0 0 0 0 0 0 0 0 0 127 0" result="hardAlpha"/><feOffset dy="2"/><feGaussianBlur stdDeviation=".5"/><feComposite in2="hardAlpha" operator="arithmetic" k2="-1" k3="1"/><feColorMatrix values="0 0 0 0 0 0 0 0 0 0 0 0 0 0 0 0 0 0 0.1 0"/><feBlend in2="shape" result="effect1_innerShadow"/></filter><filter id="n" x="20.482" y="228.036" width="497.975" height="180.843" filterUnits="userSpaceOnUse" color-interpolation-filters="sRGB"><feFlood flood-opacity="0" result="BackgroundImageFix"/><feColorMatrix in="SourceAlpha" values="0 0 0 0 0 0 0 0 0 0 0 0 0 0 0 0 0 0 127 0" result="hardAlpha"/><feOffset dy="30"/><feGaussianBlur stdDeviation="20"/><feColorMatrix values="0 0 0 0 0.137517 0 0 0 0 0.216845 0 0 0 0 0.370833 0 0 0 0.25 0"/><feBlend in2="BackgroundImageFix" result="effect1_dropShadow"/><feBlend in="SourceGraphic" in2="effect1_dropShadow" result="shape"/></filter><filter id="o" x="121.178" y="19.2" width="312.732" height="19.199" filterUnits="userSpaceOnUse" color-interpolation-filters="sRGB"><feFlood flood-opacity="0" result="BackgroundImageFix"/><feColorMatrix in="SourceAlpha" values="0 0 0 0 0 0 0 0 0 0 0 0 0 0 0 0 0 0 127 0" result="hardAlpha"/><feOffset dy="2"/><feGaussianBlur stdDeviation="1"/><feColorMatrix values="0 0 0 0 0.150139 0 0 0 0 0.215433 0 0 0 0 0.383333 0 0 0 0.1 0"/><feBlend in2="BackgroundImageFix" result="effect1_dropShadow"/><feBlend in="SourceGraphic" in2="effect1_dropShadow" result="shape"/></filter></defs></svg>